<?xml version="1.0" standalone="no"?>
<!DOCTYPE svg PUBLIC "-//W3C//DTD SVG 20010904//EN"
 "http://www.w3.org/TR/2001/REC-SVG-20010904/DTD/svg10.dtd">
<svg version="1.0" xmlns="http://www.w3.org/2000/svg"
 width="300.000000pt" height="300.000000pt" viewBox="0 0 300.000000 300.000000"
 preserveAspectRatio="xMidYMid meet">
<metadata>
Created by potrace 1.11, written by Peter Selinger 2001-2013
</metadata>
<g transform="translate(0.000000,300.000000) scale(0.100000,-0.100000)"
fill="#000000" stroke="none">
<path d="M0 1500 l0 -750 1500 0 1500 0 0 750 0 750 -1500 0 -1500 0 0 -750z
m1187 506 c-4 -10 5 -19 26 -27 l32 -13 -30 -2 c-16 -2 -79 -6 -138 -10 l-108
-6 6 -117 c3 -64 8 -131 11 -150 l5 -34 -39 32 -40 31 -7 130 c-4 72 -5 133
-2 137 3 3 65 9 139 13 79 5 134 13 136 19 2 6 6 11 9 11 3 0 3 -6 0 -14z
m-325 -8 c12 -10 19 -44 26 -138 5 -69 8 -127 6 -129 -2 -3 -15 6 -28 18 -21
20 -25 35 -30 109 -4 48 -8 102 -11 120 -4 35 9 42 37 20z m800 -123 c38 -62
53 -97 45 -100 -35 -11 -252 -26 -255 -17 -1 5 -9 18 -17 28 -13 17 -14 7 -15
-92 l0 -110 -157 -21 -157 -21 -47 41 -48 41 -5 85 c-4 47 -9 118 -11 157 l-6
72 148 7 c93 5 162 4 186 -2 31 -9 37 -8 33 3 -5 13 24 17 189 22 l60 2 57
-95z m-783 -199 c20 -21 24 -41 32 -137 5 -62 7 -114 5 -116 -2 -3 -15 11 -29
29 -22 28 -27 48 -34 141 -5 59 -6 107 -3 107 4 0 17 -11 29 -24z m236 -381
l6 -150 -20 25 c-68 83 -70 87 -77 230 l-6 135 45 -45 46 -45 6 -150z m-131
-34 c25 -36 29 -52 36 -158 4 -65 6 -119 4 -121 -1 -2 -18 25 -37 60 -32 57
-35 72 -40 166 -3 56 -2 100 2 97 4 -2 20 -22 35 -44z m766 -16 c0 -3 -20 -36
-45 -72 l-44 -67 -98 -23 c-54 -13 -108 -25 -120 -28 -13 -3 -23 -12 -23 -20
0 -11 7 -14 23 -10 114 28 182 43 185 40 2 -2 -12 -26 -30 -54 -33 -51 -43
-57 -135 -81 -40 -10 -43 -13 -43 -43 l0 -33 -136 -38 c-75 -20 -138 -35 -140
-33 -3 2 -7 63 -11 135 l-6 131 24 6 c13 3 79 18 146 34 l122 27 3 -30 c3 -29
5 -27 40 39 l36 69 119 27 c141 32 133 30 133 24z"/>
</g>
</svg>
