<?xml version="1.0" standalone="no"?>
<!DOCTYPE svg PUBLIC "-//W3C//DTD SVG 20010904//EN"
 "http://www.w3.org/TR/2001/REC-SVG-20010904/DTD/svg10.dtd">
<svg version="1.0" xmlns="http://www.w3.org/2000/svg"
 width="400.000000pt" height="400.000000pt" viewBox="0 0 400.000000 400.000000"
 preserveAspectRatio="xMidYMid meet">
<metadata>
Created by potrace 1.14, written by Peter Selinger 2001-2017
</metadata>
<g transform="translate(0.000000,400.000000) scale(0.100000,-0.100000)"
fill="#000000" stroke="none">
<path d="M0 2000 l0 -2000 2000 0 2000 0 0 2000 0 2000 -2000 0 -2000 0 0
-2000z m2567 1138 c91 -28 102 -34 77 -39 -22 -5 -16 -7 26 -8 31 -1 112 -18
184 -40 128 -38 129 -38 85 -44 -24 -4 -154 -11 -289 -17 -235 -11 -247 -11
-295 8 -40 16 -51 25 -53 45 -3 24 0 26 40 30 l43 4 -47 1 c-45 2 -49 4 -68
42 l-20 39 78 4 c42 1 90 4 105 5 15 1 76 -13 134 -30z m-1120 -55 l57 -38
-85 -6 -84 -5 93 -2 c92 -2 92 -2 164 -49 67 -45 70 -48 42 -50 -62 -5 -586
-33 -619 -33 -24 0 -35 -5 -35 -14 0 -8 4 -16 8 -18 5 -1 27 -31 51 -65 23
-35 43 -63 45 -63 2 0 180 11 396 25 215 14 396 22 401 19 5 -3 9 -166 9 -375
0 -345 -1 -369 -17 -369 -10 0 -175 -18 -368 -40 -192 -22 -355 -40 -361 -40
-20 0 -114 245 -116 303 -1 47 -2 48 -5 12 l-5 -40 -34 83 c-34 81 -35 92 -54
335 -11 139 -21 275 -22 302 -2 28 -10 58 -18 67 -8 9 -23 30 -33 47 l-18 31
38 1 c21 1 101 5 178 8 77 4 184 8 238 9 97 2 98 2 154 -35z m-398 -1205 c12
-156 21 -287 21 -293 -1 -5 -17 40 -36 100 -32 98 -38 134 -55 335 -10 124
-18 243 -18 265 0 39 1 37 33 -42 33 -79 34 -89 55 -365z m2261 240 c0 -25
-60 -582 -63 -584 -1 -1 -123 -21 -272 -44 -148 -23 -281 -44 -294 -47 l-24
-6 7 99 c7 96 9 103 88 274 l80 174 -22 44 c-11 25 -18 47 -15 50 7 7 416 59
478 61 32 1 37 -2 37 -21z m-1420 -472 l0 -324 -27 -6 c-44 -9 -655 -106 -668
-106 -8 0 -18 98 -33 337 -12 185 -21 338 -19 339 5 5 659 82 705 83 l42 1 0
-324z m-924 218 c19 -61 29 -131 44 -309 11 -126 19 -237 19 -245 0 -8 -14 32
-30 90 -22 78 -33 150 -44 285 -8 99 -17 200 -20 224 -7 60 1 48 31 -45z
m1345 -211 c1 -27 4 -38 6 -25 2 12 9 22 14 22 5 0 10 -10 10 -22 1 -17 2 -19
6 -5 6 25 23 21 24 -5 1 -18 2 -19 6 -5 2 9 9 15 14 12 12 -8 11 -40 -3 -86
-10 -36 -14 -39 -47 -39 -33 0 -38 4 -63 52 -29 53 -30 70 -3 48 13 -11 15 -5
15 44 0 68 19 76 21 9z m929 -185 c-1 -44 -58 -530 -63 -535 -8 -7 -547 -116
-552 -111 -6 6 25 512 33 538 7 24 15 26 287 71 154 26 283 47 288 48 4 1 7
-5 7 -11z m-2100 -173 c38 -126 46 -145 64 -145 12 0 169 24 351 54 181 30
330 54 331 53 1 -1 4 -133 7 -294 l5 -292 -46 -10 c-207 -43 -623 -123 -625
-120 -2 2 -26 94 -55 204 -46 181 -52 217 -62 375 -6 96 -13 208 -17 248 -3
39 -4 72 -1 72 2 0 24 -65 48 -145z"/>
<path d="M2438 3083 c28 -2 76 -2 105 0 28 2 5 3 -53 3 -58 0 -81 -1 -52 -3z"/>
<path d="M1188 3023 c29 -2 74 -2 100 0 26 2 2 3 -53 3 -55 0 -76 -1 -47 -3z"/>
<path d="M983 3013 c26 -2 67 -2 90 0 23 2 2 3 -48 3 -49 0 -68 -1 -42 -3z"/>
<path d="M983 2810 c0 -30 2 -43 4 -27 2 15 2 39 0 55 -2 15 -4 2 -4 -28z"/>
<path d="M993 2670 c0 -30 2 -43 4 -27 2 15 2 39 0 55 -2 15 -4 2 -4 -28z"/>
<path d="M1003 2540 c0 -30 2 -43 4 -27 2 15 2 39 0 55 -2 15 -4 2 -4 -28z"/>
<path d="M1013 2400 c0 -30 2 -43 4 -27 2 15 2 39 0 55 -2 15 -4 2 -4 -28z"/>
</g>
</svg>
