<?xml version="1.0" standalone="no"?>
<!DOCTYPE svg PUBLIC "-//W3C//DTD SVG 20010904//EN"
 "http://www.w3.org/TR/2001/REC-SVG-20010904/DTD/svg10.dtd">
<svg version="1.0" xmlns="http://www.w3.org/2000/svg"
 width="650.000000pt" height="650.000000pt" viewBox="0 0 650.000000 650.000000"
 preserveAspectRatio="xMidYMid meet">
<metadata>
Created by potrace 1.14, written by Peter Selinger 2001-2017
</metadata>
<g transform="translate(0.000000,650.000000) scale(0.100000,-0.100000)"
fill="#000000" stroke="none">
<path d="M0 3250 l0 -3250 3250 0 3250 0 0 3250 0 3250 -3250 0 -3250 0 0
-3250z m2190 2120 l0 -1040 -1040 0 -1040 0 0 1020 c0 1003 1 1021 20 1040 19
19 37 20 1040 20 l1020 0 0 -1040z m2100 0 l0 -1040 -1040 0 -1040 0 0 1040 0
1040 1040 0 1040 0 0 -1040z m2100 1020 c19 -19 20 -37 20 -1040 l0 -1020
-1050 0 -1050 0 0 1040 0 1040 1030 0 c1013 0 1031 -1 1050 -20z m-4200 -3120
l0 -1040 -1040 0 -1040 0 0 1040 0 1040 1040 0 1040 0 0 -1040z m2100 0 l0
-1040 -1040 0 -1040 0 0 1040 0 1040 1040 0 1040 0 0 -1040z m2120 0 l0 -1040
-1050 0 -1050 0 0 1040 0 1040 1050 0 1050 0 0 -1040z m-4220 -2110 l0 -1050
-1020 0 c-1003 0 -1021 1 -1040 20 -19 19 -20 37 -20 1050 l0 1030 1040 0
1040 0 0 -1050z m2100 0 l0 -1050 -1040 0 -1040 0 0 1050 0 1050 1040 0 1040
0 0 -1050z m2120 20 c0 -1013 -1 -1031 -20 -1050 -19 -19 -37 -20 -1050 -20
l-1030 0 0 1050 0 1050 1050 0 1050 0 0 -1030z"/>
<path d="M801 6294 c0 -11 3 -14 6 -6 3 7 2 16 -1 19 -3 4 -6 -2 -5 -13z"/>
<path d="M1501 6294 c0 -11 3 -14 6 -6 3 7 2 16 -1 19 -3 4 -6 -2 -5 -13z"/>
<path d="M370 6163 c-6 -32 -14 -65 -16 -75 -7 -25 14 -32 57 -18 56 19 89 3
89 -44 0 -61 -60 -89 -97 -46 -21 24 -53 26 -53 5 0 -9 11 -27 25 -40 35 -36
102 -35 138 1 72 72 24 184 -72 171 l-38 -5 6 32 c7 30 9 31 64 34 49 3 57 6
57 22 0 18 -7 20 -74 20 l-75 0 -11 -57z"/>
<path d="M1081 6194 c-27 -22 -31 -32 -31 -73 0 -81 65 -126 131 -91 16 9 19
7 19 -10 0 -26 -34 -60 -60 -60 -11 0 -25 9 -32 20 -11 17 -58 29 -58 15 0
-16 31 -63 45 -69 64 -24 124 9 144 80 42 153 -58 272 -158 188z m103 -33 c25
-27 17 -72 -15 -90 -24 -13 -29 -13 -53 2 -32 21 -34 59 -6 87 25 25 52 25 74
1z"/>
<path d="M1788 6200 c-31 -24 -42 -57 -21 -64 24 -9 33 -7 33 9 0 39 80 43
100 5 16 -29 -9 -70 -70 -116 -48 -36 -80 -78 -80 -104 0 -6 37 -10 100 -10
93 0 100 1 100 20 0 18 -7 20 -71 20 l-71 0 71 68 c64 60 71 71 71 105 0 54
-35 87 -93 87 -29 0 -53 -7 -69 -20z"/>
<path d="M801 6064 c0 -11 3 -14 6 -6 3 7 2 16 -1 19 -3 4 -6 -2 -5 -13z"/>
<path d="M1501 6064 c0 -11 3 -14 6 -6 3 7 2 16 -1 19 -3 4 -6 -2 -5 -13z"/>
<path d="M801 5834 c0 -11 3 -14 6 -6 3 7 2 16 -1 19 -3 4 -6 -2 -5 -13z"/>
<path d="M1501 5834 c0 -11 3 -14 6 -6 3 7 2 16 -1 19 -3 4 -6 -2 -5 -13z"/>
<path d="M796 5721 c-4 -5 -2 -12 3 -15 5 -4 12 -2 15 3 4 5 2 12 -3 15 -5 4
-12 2 -15 -3z"/>
<path d="M1496 5721 c-4 -5 -2 -12 3 -15 5 -4 12 -2 15 3 4 5 2 12 -3 15 -5 4
-12 2 -15 -3z"/>
<path d="M218 5713 c7 -3 16 -2 19 1 4 3 -2 6 -13 5 -11 0 -14 -3 -6 -6z"/>
<path d="M448 5713 c7 -3 16 -2 19 1 4 3 -2 6 -13 5 -11 0 -14 -3 -6 -6z"/>
<path d="M678 5713 c7 -3 16 -2 19 1 4 3 -2 6 -13 5 -11 0 -14 -3 -6 -6z"/>
<path d="M918 5713 c7 -3 16 -2 19 1 4 3 -2 6 -13 5 -11 0 -14 -3 -6 -6z"/>
<path d="M1148 5713 c7 -3 16 -2 19 1 4 3 -2 6 -13 5 -11 0 -14 -3 -6 -6z"/>
<path d="M1378 5713 c7 -3 16 -2 19 1 4 3 -2 6 -13 5 -11 0 -14 -3 -6 -6z"/>
<path d="M801 5594 c0 -11 3 -14 6 -6 3 7 2 16 -1 19 -3 4 -6 -2 -5 -13z"/>
<path d="M1501 5594 c0 -11 3 -14 6 -6 3 7 2 16 -1 19 -3 4 -6 -2 -5 -13z"/>
<path d="M1076 5489 c-30 -35 -32 -47 -11 -55 9 -4 25 4 40 20 27 29 43 32 69
13 27 -20 12 -56 -25 -64 -40 -8 -41 -43 -1 -43 35 0 52 -16 52 -52 0 -51 -66
-65 -98 -21 -20 28 -52 27 -52 -2 0 -32 46 -65 90 -65 52 0 76 13 95 50 21 41
19 67 -8 94 -20 20 -22 26 -10 42 37 51 -6 114 -77 114 -30 0 -44 -6 -64 -31z"/>
<path d="M801 5364 c0 -11 3 -14 6 -6 3 7 2 16 -1 19 -3 4 -6 -2 -5 -13z"/>
<path d="M1501 5364 c0 -11 3 -14 6 -6 3 7 2 16 -1 19 -3 4 -6 -2 -5 -13z"/>
<path d="M801 5134 c0 -11 3 -14 6 -6 3 7 2 16 -1 19 -3 4 -6 -2 -5 -13z"/>
<path d="M1501 5134 c0 -11 3 -14 6 -6 3 7 2 16 -1 19 -3 4 -6 -2 -5 -13z"/>
<path d="M796 5021 c-4 -5 -2 -12 3 -15 5 -4 12 -2 15 3 4 5 2 12 -3 15 -5 4
-12 2 -15 -3z"/>
<path d="M1496 5021 c-4 -5 -2 -12 3 -15 5 -4 12 -2 15 3 4 5 2 12 -3 15 -5 4
-12 2 -15 -3z"/>
<path d="M218 5013 c7 -3 16 -2 19 1 4 3 -2 6 -13 5 -11 0 -14 -3 -6 -6z"/>
<path d="M448 5013 c7 -3 16 -2 19 1 4 3 -2 6 -13 5 -11 0 -14 -3 -6 -6z"/>
<path d="M678 5013 c7 -3 16 -2 19 1 4 3 -2 6 -13 5 -11 0 -14 -3 -6 -6z"/>
<path d="M918 5013 c7 -3 16 -2 19 1 4 3 -2 6 -13 5 -11 0 -14 -3 -6 -6z"/>
<path d="M1148 5013 c7 -3 16 -2 19 1 4 3 -2 6 -13 5 -11 0 -14 -3 -6 -6z"/>
<path d="M1378 5013 c7 -3 16 -2 19 1 4 3 -2 6 -13 5 -11 0 -14 -3 -6 -6z"/>
<path d="M350 4800 c0 -18 7 -20 70 -20 l70 0 -31 -47 c-30 -48 -69 -158 -69
-194 0 -12 7 -19 19 -19 20 0 24 8 36 70 9 42 48 122 81 167 43 57 37 63 -76
63 -93 0 -100 -1 -100 -20z"/>
<path d="M1101 4723 c-91 -124 -91 -133 -6 -133 l65 0 0 -35 c0 -31 3 -35 25
-35 22 0 25 4 25 35 0 28 4 35 20 35 13 0 20 7 20 20 0 13 -7 20 -20 20 -19 0
-20 7 -20 95 0 87 -2 95 -19 95 -13 0 -43 -32 -90 -97z m59 -38 l0 -55 -40 0
c-22 0 -40 2 -40 5 0 6 73 105 77 105 2 0 3 -25 3 -55z"/>
<path d="M2901 6294 c0 -11 3 -14 6 -6 3 7 2 16 -1 19 -3 4 -6 -2 -5 -13z"/>
<path d="M3601 6294 c0 -11 3 -14 6 -6 3 7 2 16 -1 19 -3 4 -6 -2 -5 -13z"/>
<path d="M3150 6200 c0 -18 7 -20 69 -20 l70 0 -35 -57 c-36 -60 -64 -139 -64
-181 0 -18 5 -23 22 -20 18 2 24 12 30 46 9 52 49 144 83 188 45 58 38 64 -75
64 -93 0 -100 -1 -100 -20z"/>
<path d="M3908 6125 c-38 -51 -68 -102 -68 -114 0 -19 6 -21 65 -21 l65 0 0
-35 c0 -31 3 -35 25 -35 22 0 25 4 25 35 0 28 4 35 20 35 13 0 20 7 20 20 0
13 -7 20 -20 20 -19 0 -20 7 -20 95 0 92 -1 95 -22 94 -17 0 -41 -25 -90 -94z
m62 -40 l0 -55 -40 0 c-22 0 -40 2 -40 5 0 6 73 105 77 105 2 0 3 -25 3 -55z"/>
<path d="M2901 6064 c0 -11 3 -14 6 -6 3 7 2 16 -1 19 -3 4 -6 -2 -5 -13z"/>
<path d="M3601 6064 c0 -11 3 -14 6 -6 3 7 2 16 -1 19 -3 4 -6 -2 -5 -13z"/>
<path d="M2901 5834 c0 -11 3 -14 6 -6 3 7 2 16 -1 19 -3 4 -6 -2 -5 -13z"/>
<path d="M3601 5834 c0 -11 3 -14 6 -6 3 7 2 16 -1 19 -3 4 -6 -2 -5 -13z"/>
<path d="M2896 5721 c-4 -5 -2 -12 3 -15 5 -4 12 -2 15 3 4 5 2 12 -3 15 -5 4
-12 2 -15 -3z"/>
<path d="M3596 5721 c-4 -5 -2 -12 3 -15 5 -4 12 -2 15 3 4 5 2 12 -3 15 -5 4
-12 2 -15 -3z"/>
<path d="M2318 5713 c7 -3 16 -2 19 1 4 3 -2 6 -13 5 -11 0 -14 -3 -6 -6z"/>
<path d="M2548 5713 c7 -3 16 -2 19 1 4 3 -2 6 -13 5 -11 0 -14 -3 -6 -6z"/>
<path d="M2778 5713 c7 -3 16 -2 19 1 4 3 -2 6 -13 5 -11 0 -14 -3 -6 -6z"/>
<path d="M3018 5713 c7 -3 16 -2 19 1 4 3 -2 6 -13 5 -11 0 -14 -3 -6 -6z"/>
<path d="M3248 5713 c7 -3 16 -2 19 1 4 3 -2 6 -13 5 -11 0 -14 -3 -6 -6z"/>
<path d="M3478 5713 c7 -3 16 -2 19 1 4 3 -2 6 -13 5 -11 0 -14 -3 -6 -6z"/>
<path d="M2901 5594 c0 -11 3 -14 6 -6 3 7 2 16 -1 19 -3 4 -6 -2 -5 -13z"/>
<path d="M3601 5594 c0 -11 3 -14 6 -6 3 7 2 16 -1 19 -3 4 -6 -2 -5 -13z"/>
<path d="M3893 5505 c-50 -35 -50 -135 0 -170 25 -18 70 -19 99 -4 19 10 20 9
14 -17 -13 -52 -65 -72 -88 -34 -15 24 -58 27 -58 5 0 -9 11 -27 25 -40 26
-27 80 -34 116 -15 68 37 76 219 12 269 -31 25 -89 28 -120 6z m97 -45 c11
-11 20 -29 20 -40 0 -22 -33 -60 -53 -60 -25 0 -57 31 -57 56 0 27 32 64 55
64 8 0 24 -9 35 -20z"/>
<path d="M2901 5364 c0 -11 3 -14 6 -6 3 7 2 16 -1 19 -3 4 -6 -2 -5 -13z"/>
<path d="M3601 5364 c0 -11 3 -14 6 -6 3 7 2 16 -1 19 -3 4 -6 -2 -5 -13z"/>
<path d="M2901 5134 c0 -11 3 -14 6 -6 3 7 2 16 -1 19 -3 4 -6 -2 -5 -13z"/>
<path d="M3601 5134 c0 -11 3 -14 6 -6 3 7 2 16 -1 19 -3 4 -6 -2 -5 -13z"/>
<path d="M2896 5021 c-4 -5 -2 -12 3 -15 5 -4 12 -2 15 3 4 5 2 12 -3 15 -5 4
-12 2 -15 -3z"/>
<path d="M3596 5021 c-4 -5 -2 -12 3 -15 5 -4 12 -2 15 3 4 5 2 12 -3 15 -5 4
-12 2 -15 -3z"/>
<path d="M2318 5013 c7 -3 16 -2 19 1 4 3 -2 6 -13 5 -11 0 -14 -3 -6 -6z"/>
<path d="M2548 5013 c7 -3 16 -2 19 1 4 3 -2 6 -13 5 -11 0 -14 -3 -6 -6z"/>
<path d="M2778 5013 c7 -3 16 -2 19 1 4 3 -2 6 -13 5 -11 0 -14 -3 -6 -6z"/>
<path d="M3018 5013 c7 -3 16 -2 19 1 4 3 -2 6 -13 5 -11 0 -14 -3 -6 -6z"/>
<path d="M3248 5013 c7 -3 16 -2 19 1 4 3 -2 6 -13 5 -11 0 -14 -3 -6 -6z"/>
<path d="M3478 5013 c7 -3 16 -2 19 1 4 3 -2 6 -13 5 -11 0 -14 -3 -6 -6z"/>
<path d="M3244 4799 c-10 -11 -31 -28 -46 -37 -28 -17 -39 -52 -15 -52 7 0 23
7 35 16 l22 15 0 -110 0 -111 25 0 25 0 0 150 c0 160 -5 174 -46 129z"/>
<path d="M5001 6294 c0 -11 3 -14 6 -6 3 7 2 16 -1 19 -3 4 -6 -2 -5 -13z"/>
<path d="M5701 6294 c0 -11 3 -14 6 -6 3 7 2 16 -1 19 -3 4 -6 -2 -5 -13z"/>
<path d="M5001 6064 c0 -11 3 -14 6 -6 3 7 2 16 -1 19 -3 4 -6 -2 -5 -13z"/>
<path d="M5701 6064 c0 -11 3 -14 6 -6 3 7 2 16 -1 19 -3 4 -6 -2 -5 -13z"/>
<path d="M5001 5834 c0 -11 3 -14 6 -6 3 7 2 16 -1 19 -3 4 -6 -2 -5 -13z"/>
<path d="M5701 5834 c0 -11 3 -14 6 -6 3 7 2 16 -1 19 -3 4 -6 -2 -5 -13z"/>
<path d="M4996 5721 c-4 -5 -2 -12 3 -15 5 -4 12 -2 15 3 4 5 2 12 -3 15 -5 4
-12 2 -15 -3z"/>
<path d="M5696 5721 c-4 -5 -2 -12 3 -15 5 -4 12 -2 15 3 4 5 2 12 -3 15 -5 4
-12 2 -15 -3z"/>
<path d="M4418 5713 c7 -3 16 -2 19 1 4 3 -2 6 -13 5 -11 0 -14 -3 -6 -6z"/>
<path d="M4648 5713 c7 -3 16 -2 19 1 4 3 -2 6 -13 5 -11 0 -14 -3 -6 -6z"/>
<path d="M4878 5713 c7 -3 16 -2 19 1 4 3 -2 6 -13 5 -11 0 -14 -3 -6 -6z"/>
<path d="M5118 5713 c7 -3 16 -2 19 1 4 3 -2 6 -13 5 -11 0 -14 -3 -6 -6z"/>
<path d="M5348 5713 c7 -3 16 -2 19 1 4 3 -2 6 -13 5 -11 0 -14 -3 -6 -6z"/>
<path d="M5578 5713 c7 -3 16 -2 19 1 4 3 -2 6 -13 5 -11 0 -14 -3 -6 -6z"/>
<path d="M5878 5713 c7 -3 16 -2 19 1 4 3 -2 6 -13 5 -11 0 -14 -3 -6 -6z"/>
<path d="M6228 5713 c7 -3 16 -2 19 1 4 3 -2 6 -13 5 -11 0 -14 -3 -6 -6z"/>
<path d="M5001 5594 c0 -11 3 -14 6 -6 3 7 2 16 -1 19 -3 4 -6 -2 -5 -13z"/>
<path d="M5701 5594 c0 -11 3 -14 6 -6 3 7 2 16 -1 19 -3 4 -6 -2 -5 -13z"/>
<path d="M5301 5423 c-91 -124 -91 -133 -6 -133 l65 0 0 -35 c0 -31 3 -35 25
-35 22 0 25 4 25 35 0 28 4 35 20 35 13 0 20 7 20 20 0 13 -7 20 -20 20 -19 0
-20 7 -20 95 0 87 -2 95 -19 95 -13 0 -43 -32 -90 -97z m59 -38 l0 -55 -40 0
c-22 0 -40 2 -40 5 0 6 73 105 77 105 2 0 3 -25 3 -55z"/>
<path d="M5001 5364 c0 -11 3 -14 6 -6 3 7 2 16 -1 19 -3 4 -6 -2 -5 -13z"/>
<path d="M5701 5364 c0 -11 3 -14 6 -6 3 7 2 16 -1 19 -3 4 -6 -2 -5 -13z"/>
<path d="M5001 5134 c0 -11 3 -14 6 -6 3 7 2 16 -1 19 -3 4 -6 -2 -5 -13z"/>
<path d="M5701 5134 c0 -11 3 -14 6 -6 3 7 2 16 -1 19 -3 4 -6 -2 -5 -13z"/>
<path d="M4996 5021 c-4 -5 -2 -12 3 -15 5 -4 12 -2 15 3 4 5 2 12 -3 15 -5 4
-12 2 -15 -3z"/>
<path d="M5696 5021 c-4 -5 -2 -12 3 -15 5 -4 12 -2 15 3 4 5 2 12 -3 15 -5 4
-12 2 -15 -3z"/>
<path d="M4418 5013 c7 -3 16 -2 19 1 4 3 -2 6 -13 5 -11 0 -14 -3 -6 -6z"/>
<path d="M4648 5013 c7 -3 16 -2 19 1 4 3 -2 6 -13 5 -11 0 -14 -3 -6 -6z"/>
<path d="M4878 5013 c7 -3 16 -2 19 1 4 3 -2 6 -13 5 -11 0 -14 -3 -6 -6z"/>
<path d="M5118 5013 c7 -3 16 -2 19 1 4 3 -2 6 -13 5 -11 0 -14 -3 -6 -6z"/>
<path d="M5348 5013 c7 -3 16 -2 19 1 4 3 -2 6 -13 5 -11 0 -14 -3 -6 -6z"/>
<path d="M5578 5013 c7 -3 16 -2 19 1 4 3 -2 6 -13 5 -11 0 -14 -3 -6 -6z"/>
<path d="M5878 5013 c7 -3 16 -2 19 1 4 3 -2 6 -13 5 -11 0 -14 -3 -6 -6z"/>
<path d="M6228 5013 c7 -3 16 -2 19 1 4 3 -2 6 -13 5 -11 0 -14 -3 -6 -6z"/>
<path d="M4581 4794 c-27 -22 -31 -32 -31 -73 0 -81 65 -126 131 -91 16 9 19
7 19 -10 0 -26 -34 -60 -60 -60 -11 0 -25 9 -32 20 -11 17 -58 29 -58 15 0
-16 31 -63 45 -69 64 -24 124 9 144 80 42 153 -58 272 -158 188z m103 -33 c25
-27 17 -72 -15 -90 -24 -13 -29 -13 -53 2 -32 21 -34 59 -6 87 25 25 52 25 74
1z"/>
<path d="M801 4194 c0 -11 3 -14 6 -6 3 7 2 16 -1 19 -3 4 -6 -2 -5 -13z"/>
<path d="M1501 4194 c0 -11 3 -14 6 -6 3 7 2 16 -1 19 -3 4 -6 -2 -5 -13z"/>
<path d="M801 3964 c0 -11 3 -14 6 -6 3 7 2 16 -1 19 -3 4 -6 -2 -5 -13z"/>
<path d="M1501 3964 c0 -11 3 -14 6 -6 3 7 2 16 -1 19 -3 4 -6 -2 -5 -13z"/>
<path d="M801 3734 c0 -11 3 -14 6 -6 3 7 2 16 -1 19 -3 4 -6 -2 -5 -13z"/>
<path d="M1501 3734 c0 -11 3 -14 6 -6 3 7 2 16 -1 19 -3 4 -6 -2 -5 -13z"/>
<path d="M796 3621 c-4 -5 -2 -12 3 -15 5 -4 12 -2 15 3 4 5 2 12 -3 15 -5 4
-12 2 -15 -3z"/>
<path d="M1496 3621 c-4 -5 -2 -12 3 -15 5 -4 12 -2 15 3 4 5 2 12 -3 15 -5 4
-12 2 -15 -3z"/>
<path d="M218 3613 c7 -3 16 -2 19 1 4 3 -2 6 -13 5 -11 0 -14 -3 -6 -6z"/>
<path d="M448 3613 c7 -3 16 -2 19 1 4 3 -2 6 -13 5 -11 0 -14 -3 -6 -6z"/>
<path d="M678 3613 c7 -3 16 -2 19 1 4 3 -2 6 -13 5 -11 0 -14 -3 -6 -6z"/>
<path d="M918 3613 c7 -3 16 -2 19 1 4 3 -2 6 -13 5 -11 0 -14 -3 -6 -6z"/>
<path d="M1148 3613 c7 -3 16 -2 19 1 4 3 -2 6 -13 5 -11 0 -14 -3 -6 -6z"/>
<path d="M1378 3613 c7 -3 16 -2 19 1 4 3 -2 6 -13 5 -11 0 -14 -3 -6 -6z"/>
<path d="M801 3494 c0 -11 3 -14 6 -6 3 7 2 16 -1 19 -3 4 -6 -2 -5 -13z"/>
<path d="M1501 3494 c0 -11 3 -14 6 -6 3 7 2 16 -1 19 -3 4 -6 -2 -5 -13z"/>
<path d="M382 3400 c-25 -24 -29 -71 -7 -93 12 -13 12 -17 -5 -32 -14 -13 -20
-31 -20 -62 0 -59 35 -93 95 -93 84 0 132 79 86 141 -20 27 -21 31 -6 51 21
32 19 55 -10 83 -32 33 -101 35 -133 5z m102 -42 c16 -26 -14 -53 -49 -44 -34
9 -44 35 -19 53 24 17 54 13 68 -9z m8 -111 c21 -33 -4 -87 -40 -87 -29 0 -62
30 -62 55 0 46 78 70 102 32z"/>
<path d="M1070 3363 c-6 -32 -14 -65 -16 -75 -7 -25 14 -32 55 -19 54 19 91 2
91 -41 0 -18 -4 -40 -9 -47 -14 -21 -80 -19 -92 2 -12 21 -49 22 -49 2 0 -32
47 -65 90 -65 52 0 76 13 95 50 24 47 19 87 -15 122 -27 27 -36 30 -74 26
l-43 -5 6 31 c7 30 9 31 64 34 49 3 57 6 57 22 0 18 -7 20 -74 20 l-75 0 -11
-57z"/>
<path d="M801 3264 c0 -11 3 -14 6 -6 3 7 2 16 -1 19 -3 4 -6 -2 -5 -13z"/>
<path d="M1501 3264 c0 -11 3 -14 6 -6 3 7 2 16 -1 19 -3 4 -6 -2 -5 -13z"/>
<path d="M801 3034 c0 -11 3 -14 6 -6 3 7 2 16 -1 19 -3 4 -6 -2 -5 -13z"/>
<path d="M1501 3034 c0 -11 3 -14 6 -6 3 7 2 16 -1 19 -3 4 -6 -2 -5 -13z"/>
<path d="M796 2921 c-4 -5 -2 -12 3 -15 5 -4 12 -2 15 3 4 5 2 12 -3 15 -5 4
-12 2 -15 -3z"/>
<path d="M1496 2921 c-4 -5 -2 -12 3 -15 5 -4 12 -2 15 3 4 5 2 12 -3 15 -5 4
-12 2 -15 -3z"/>
<path d="M218 2913 c7 -3 16 -2 19 1 4 3 -2 6 -13 5 -11 0 -14 -3 -6 -6z"/>
<path d="M448 2913 c7 -3 16 -2 19 1 4 3 -2 6 -13 5 -11 0 -14 -3 -6 -6z"/>
<path d="M678 2913 c7 -3 16 -2 19 1 4 3 -2 6 -13 5 -11 0 -14 -3 -6 -6z"/>
<path d="M918 2913 c7 -3 16 -2 19 1 4 3 -2 6 -13 5 -11 0 -14 -3 -6 -6z"/>
<path d="M1148 2913 c7 -3 16 -2 19 1 4 3 -2 6 -13 5 -11 0 -14 -3 -6 -6z"/>
<path d="M1378 2913 c7 -3 16 -2 19 1 4 3 -2 6 -13 5 -11 0 -14 -3 -6 -6z"/>
<path d="M2901 4194 c0 -11 3 -14 6 -6 3 7 2 16 -1 19 -3 4 -6 -2 -5 -13z"/>
<path d="M3601 4194 c0 -11 3 -14 6 -6 3 7 2 16 -1 19 -3 4 -6 -2 -5 -13z"/>
<path d="M3170 4063 c-6 -32 -14 -65 -16 -75 -7 -25 14 -32 57 -18 56 19 89 3
89 -44 0 -61 -60 -89 -97 -46 -21 24 -53 26 -53 5 0 -9 11 -27 25 -40 35 -36
102 -35 138 1 72 72 24 184 -72 171 l-38 -5 6 32 c7 30 9 31 64 34 49 3 57 6
57 22 0 18 -7 20 -74 20 l-75 0 -11 -57z"/>
<path d="M2901 3964 c0 -11 3 -14 6 -6 3 7 2 16 -1 19 -3 4 -6 -2 -5 -13z"/>
<path d="M3601 3964 c0 -11 3 -14 6 -6 3 7 2 16 -1 19 -3 4 -6 -2 -5 -13z"/>
<path d="M2901 3743 c-1 -6 -9 -14 -18 -16 -10 -3 171 -4 402 -4 231 0 400 2
375 4 -24 3 -48 10 -52 16 -6 9 -8 9 -8 0 0 -19 -686 -19 -693 0 -4 8 -6 8 -6
0z"/>
<path d="M2815 3698 c-3 -7 -4 -220 -3 -473 l3 -460 470 0 470 0 0 470 0 470
-468 3 c-369 2 -469 0 -472 -10z m489 -104 c22 -9 20 -47 -4 -69 -11 -10 -20
-22 -20 -27 0 -4 9 -8 20 -8 11 0 20 -4 20 -10 0 -5 -18 -10 -40 -10 -22 0
-40 4 -40 10 0 5 14 25 31 45 23 26 29 39 21 47 -8 8 -15 8 -27 -2 -20 -17
-32 -5 -15 15 13 16 29 19 54 9z m-294 -333 c0 -22 6 -42 13 -45 10 -5 10 -7
0 -12 -7 -3 -13 -12 -13 -20 0 -8 -4 -14 -10 -14 -5 0 -10 7 -10 15 0 10 -10
15 -30 15 -16 0 -30 3 -30 6 0 16 56 94 68 94 7 0 12 -14 12 -39z m151 -198
c1 -39 2 -43 9 -23 l8 25 8 -24 c7 -23 8 -24 15 -5 6 18 8 17 17 -6 6 -14 11
-18 11 -10 1 10 4 11 12 3 8 -8 8 -25 -2 -62 -12 -49 -14 -51 -49 -51 -30 0
-37 4 -45 28 -12 33 -7 172 6 172 5 0 9 -21 10 -47z m-32 -69 c3 -16 1 -17
-13 -5 -19 16 -21 34 -3 29 6 -3 14 -13 16 -24z"/>
<path d="M2966 3235 c-3 -9 0 -15 9 -15 8 0 15 7 15 15 0 8 -4 15 -9 15 -5 0
-11 -7 -15 -15z"/>
<path d="M2782 3625 c-7 -9 -8 -15 -2 -15 7 0 10 -113 10 -345 0 -269 -3 -345
-12 -345 -10 0 -10 -2 -1 -8 6 -4 13 -25 16 -47 2 -22 4 143 5 368 1 224 1
407 0 407 -2 -1 -9 -7 -16 -15z"/>
<path d="M3770 3235 c0 -225 2 -406 5 -403 7 7 7 799 0 806 -3 3 -5 -178 -5
-403z"/>
<path d="M2318 3613 c7 -3 16 -2 19 1 4 3 -2 6 -13 5 -11 0 -14 -3 -6 -6z"/>
<path d="M2548 3613 c7 -3 16 -2 19 1 4 3 -2 6 -13 5 -11 0 -14 -3 -6 -6z"/>
<path d="M2476 3389 c-30 -35 -32 -47 -11 -55 9 -4 25 4 40 20 27 29 43 32 69
13 27 -20 12 -56 -25 -64 -40 -8 -41 -43 -1 -43 35 0 52 -16 52 -52 0 -51 -66
-65 -98 -21 -20 28 -52 27 -52 -2 0 -32 46 -65 90 -65 52 0 76 13 95 50 21 41
19 67 -8 94 -20 20 -22 26 -10 42 37 51 -6 114 -77 114 -30 0 -44 -6 -64 -31z"/>
<path d="M3953 3401 c-7 -11 -26 -27 -43 -37 -16 -10 -30 -26 -30 -36 0 -22 3
-22 40 -3 l30 16 0 -111 0 -110 25 0 25 0 0 150 c0 136 -2 150 -18 150 -9 0
-23 -9 -29 -19z"/>
<path d="M2318 2913 c7 -3 16 -2 19 1 4 3 -2 6 -13 5 -11 0 -14 -3 -6 -6z"/>
<path d="M2548 2913 c7 -3 16 -2 19 1 4 3 -2 6 -13 5 -11 0 -14 -3 -6 -6z"/>
<path d="M2872 2745 c7 -7 819 -7 826 0 3 3 -183 5 -413 5 -230 0 -416 -2
-413 -5z"/>
<path d="M3176 2694 c-57 -58 -21 -174 54 -174 17 0 40 5 51 10 16 9 19 7 19
-10 0 -26 -34 -60 -60 -60 -11 0 -25 9 -32 20 -11 17 -58 29 -58 15 0 -16 31
-63 45 -69 37 -14 86 -6 110 18 62 62 58 215 -6 260 -37 25 -92 21 -123 -10z
m108 -33 c25 -27 17 -72 -15 -90 -24 -13 -29 -13 -53 2 -32 21 -34 59 -6 87
25 25 52 25 74 1z"/>
<path d="M5001 4194 c0 -11 3 -14 6 -6 3 7 2 16 -1 19 -3 4 -6 -2 -5 -13z"/>
<path d="M5701 4194 c0 -11 3 -14 6 -6 3 7 2 16 -1 19 -3 4 -6 -2 -5 -13z"/>
<path d="M5285 4096 c-62 -62 -58 -215 6 -260 29 -20 88 -21 115 -1 51 35 55
127 7 165 -28 22 -73 26 -104 10 -15 -9 -19 -7 -19 7 1 49 64 78 94 44 22 -25
56 -28 56 -6 0 9 -11 27 -25 40 -33 34 -96 35 -130 1z m96 -126 c24 -13 26
-72 3 -94 -27 -28 -62 -19 -83 21 -15 30 -14 40 9 63 22 22 42 25 71 10z"/>
<path d="M5001 3964 c0 -11 3 -14 6 -6 3 7 2 16 -1 19 -3 4 -6 -2 -5 -13z"/>
<path d="M5701 3964 c0 -11 3 -14 6 -6 3 7 2 16 -1 19 -3 4 -6 -2 -5 -13z"/>
<path d="M5001 3734 c0 -11 3 -14 6 -6 3 7 2 16 -1 19 -3 4 -6 -2 -5 -13z"/>
<path d="M5701 3734 c0 -11 3 -14 6 -6 3 7 2 16 -1 19 -3 4 -6 -2 -5 -13z"/>
<path d="M4996 3621 c-4 -5 -2 -12 3 -15 5 -4 12 -2 15 3 4 5 2 12 -3 15 -5 4
-12 2 -15 -3z"/>
<path d="M5696 3621 c-4 -5 -2 -12 3 -15 5 -4 12 -2 15 3 4 5 2 12 -3 15 -5 4
-12 2 -15 -3z"/>
<path d="M4418 3613 c7 -3 16 -2 19 1 4 3 -2 6 -13 5 -11 0 -14 -3 -6 -6z"/>
<path d="M4648 3613 c7 -3 16 -2 19 1 4 3 -2 6 -13 5 -11 0 -14 -3 -6 -6z"/>
<path d="M4878 3613 c7 -3 16 -2 19 1 4 3 -2 6 -13 5 -11 0 -14 -3 -6 -6z"/>
<path d="M5118 3613 c7 -3 16 -2 19 1 4 3 -2 6 -13 5 -11 0 -14 -3 -6 -6z"/>
<path d="M5348 3613 c7 -3 16 -2 19 1 4 3 -2 6 -13 5 -11 0 -14 -3 -6 -6z"/>
<path d="M5578 3613 c7 -3 16 -2 19 1 4 3 -2 6 -13 5 -11 0 -14 -3 -6 -6z"/>
<path d="M5878 3613 c7 -3 16 -2 19 1 4 3 -2 6 -13 5 -11 0 -14 -3 -6 -6z"/>
<path d="M6228 3613 c7 -3 16 -2 19 1 4 3 -2 6 -13 5 -11 0 -14 -3 -6 -6z"/>
<path d="M5001 3494 c0 -11 3 -14 6 -6 3 7 2 16 -1 19 -3 4 -6 -2 -5 -13z"/>
<path d="M5701 3494 c0 -11 3 -14 6 -6 3 7 2 16 -1 19 -3 4 -6 -2 -5 -13z"/>
<path d="M5001 3264 c0 -11 3 -14 6 -6 3 7 2 16 -1 19 -3 4 -6 -2 -5 -13z"/>
<path d="M5701 3264 c0 -11 3 -14 6 -6 3 7 2 16 -1 19 -3 4 -6 -2 -5 -13z"/>
<path d="M5001 3034 c0 -11 3 -14 6 -6 3 7 2 16 -1 19 -3 4 -6 -2 -5 -13z"/>
<path d="M5701 3034 c0 -11 3 -14 6 -6 3 7 2 16 -1 19 -3 4 -6 -2 -5 -13z"/>
<path d="M4996 2921 c-4 -5 -2 -12 3 -15 5 -4 12 -2 15 3 4 5 2 12 -3 15 -5 4
-12 2 -15 -3z"/>
<path d="M5696 2921 c-4 -5 -2 -12 3 -15 5 -4 12 -2 15 3 4 5 2 12 -3 15 -5 4
-12 2 -15 -3z"/>
<path d="M4418 2913 c7 -3 16 -2 19 1 4 3 -2 6 -13 5 -11 0 -14 -3 -6 -6z"/>
<path d="M4648 2913 c7 -3 16 -2 19 1 4 3 -2 6 -13 5 -11 0 -14 -3 -6 -6z"/>
<path d="M4878 2913 c7 -3 16 -2 19 1 4 3 -2 6 -13 5 -11 0 -14 -3 -6 -6z"/>
<path d="M5118 2913 c7 -3 16 -2 19 1 4 3 -2 6 -13 5 -11 0 -14 -3 -6 -6z"/>
<path d="M5348 2913 c7 -3 16 -2 19 1 4 3 -2 6 -13 5 -11 0 -14 -3 -6 -6z"/>
<path d="M5578 2913 c7 -3 16 -2 19 1 4 3 -2 6 -13 5 -11 0 -14 -3 -6 -6z"/>
<path d="M5878 2913 c7 -3 16 -2 19 1 4 3 -2 6 -13 5 -11 0 -14 -3 -6 -6z"/>
<path d="M6228 2913 c7 -3 16 -2 19 1 4 3 -2 6 -13 5 -11 0 -14 -3 -6 -6z"/>
<path d="M5344 2699 c-10 -11 -31 -28 -46 -37 -28 -17 -39 -52 -15 -52 7 0 23
7 35 16 l22 15 0 -110 0 -111 25 0 25 0 0 150 c0 160 -5 174 -46 129z"/>
<path d="M801 2094 c0 -11 3 -14 6 -6 3 7 2 16 -1 19 -3 4 -6 -2 -5 -13z"/>
<path d="M1501 2094 c0 -11 3 -14 6 -6 3 7 2 16 -1 19 -3 4 -6 -2 -5 -13z"/>
<path d="M401 1923 c-91 -124 -91 -133 -6 -133 l65 0 0 -35 c0 -31 3 -35 25
-35 22 0 25 4 25 35 0 28 4 35 20 35 13 0 20 7 20 20 0 13 -7 20 -20 20 -19 0
-20 7 -20 95 0 87 -2 95 -19 95 -13 0 -43 -32 -90 -97z m59 -38 l0 -55 -40 0
c-22 0 -40 2 -40 5 0 6 73 105 77 105 2 0 3 -25 3 -55z"/>
<path d="M1050 2000 c0 -18 7 -20 70 -20 l70 0 -31 -47 c-30 -48 -69 -158 -69
-194 0 -12 7 -19 19 -19 20 0 24 8 36 70 9 42 48 122 81 167 43 57 37 63 -76
63 -93 0 -100 -1 -100 -20z"/>
<path d="M801 1864 c0 -11 3 -14 6 -6 3 7 2 16 -1 19 -3 4 -6 -2 -5 -13z"/>
<path d="M1501 1864 c0 -11 3 -14 6 -6 3 7 2 16 -1 19 -3 4 -6 -2 -5 -13z"/>
<path d="M801 1634 c0 -11 3 -14 6 -6 3 7 2 16 -1 19 -3 4 -6 -2 -5 -13z"/>
<path d="M1501 1634 c0 -11 3 -14 6 -6 3 7 2 16 -1 19 -3 4 -6 -2 -5 -13z"/>
<path d="M796 1521 c-4 -5 -2 -12 3 -15 5 -4 12 -2 15 3 4 5 2 12 -3 15 -5 4
-12 2 -15 -3z"/>
<path d="M1496 1521 c-4 -5 -2 -12 3 -15 5 -4 12 -2 15 3 4 5 2 12 -3 15 -5 4
-12 2 -15 -3z"/>
<path d="M218 1513 c7 -3 16 -2 19 1 4 3 -2 6 -13 5 -11 0 -14 -3 -6 -6z"/>
<path d="M448 1513 c7 -3 16 -2 19 1 4 3 -2 6 -13 5 -11 0 -14 -3 -6 -6z"/>
<path d="M678 1513 c7 -3 16 -2 19 1 4 3 -2 6 -13 5 -11 0 -14 -3 -6 -6z"/>
<path d="M918 1513 c7 -3 16 -2 19 1 4 3 -2 6 -13 5 -11 0 -14 -3 -6 -6z"/>
<path d="M1148 1513 c7 -3 16 -2 19 1 4 3 -2 6 -13 5 -11 0 -14 -3 -6 -6z"/>
<path d="M1378 1513 c7 -3 16 -2 19 1 4 3 -2 6 -13 5 -11 0 -14 -3 -6 -6z"/>
<path d="M801 1394 c0 -11 3 -14 6 -6 3 7 2 16 -1 19 -3 4 -6 -2 -5 -13z"/>
<path d="M1501 1394 c0 -11 3 -14 6 -6 3 7 2 16 -1 19 -3 4 -6 -2 -5 -13z"/>
<path d="M1086 1299 c-29 -23 -35 -69 -11 -89 13 -11 12 -15 -5 -37 -22 -29
-26 -89 -7 -114 19 -25 52 -39 91 -39 77 0 122 89 74 145 -24 28 -25 28 -6 47
24 24 17 64 -14 91 -28 24 -89 22 -122 -4z m88 -25 c9 -3 16 -17 16 -30 0 -39
-72 -47 -86 -9 -13 32 29 55 70 39z m7 -114 c13 -8 19 -21 19 -46 0 -46 -37
-66 -78 -43 -69 38 -10 126 59 89z"/>
<path d="M801 1164 c0 -11 3 -14 6 -6 3 7 2 16 -1 19 -3 4 -6 -2 -5 -13z"/>
<path d="M1501 1164 c0 -11 3 -14 6 -6 3 7 2 16 -1 19 -3 4 -6 -2 -5 -13z"/>
<path d="M801 934 c0 -11 3 -14 6 -6 3 7 2 16 -1 19 -3 4 -6 -2 -5 -13z"/>
<path d="M1501 934 c0 -11 3 -14 6 -6 3 7 2 16 -1 19 -3 4 -6 -2 -5 -13z"/>
<path d="M796 821 c-4 -5 -2 -12 3 -15 5 -4 12 -2 15 3 4 5 2 12 -3 15 -5 4
-12 2 -15 -3z"/>
<path d="M1496 821 c-4 -5 -2 -12 3 -15 5 -4 12 -2 15 3 4 5 2 12 -3 15 -5 4
-12 2 -15 -3z"/>
<path d="M218 813 c7 -3 16 -2 19 1 4 3 -2 6 -13 5 -11 0 -14 -3 -6 -6z"/>
<path d="M448 813 c7 -3 16 -2 19 1 4 3 -2 6 -13 5 -11 0 -14 -3 -6 -6z"/>
<path d="M678 813 c7 -3 16 -2 19 1 4 3 -2 6 -13 5 -11 0 -14 -3 -6 -6z"/>
<path d="M918 813 c7 -3 16 -2 19 1 4 3 -2 6 -13 5 -11 0 -14 -3 -6 -6z"/>
<path d="M1148 813 c7 -3 16 -2 19 1 4 3 -2 6 -13 5 -11 0 -14 -3 -6 -6z"/>
<path d="M1378 813 c7 -3 16 -2 19 1 4 3 -2 6 -13 5 -11 0 -14 -3 -6 -6z"/>
<path d="M801 634 c0 -11 3 -14 6 -6 3 7 2 16 -1 19 -3 4 -6 -2 -5 -13z"/>
<path d="M1501 634 c0 -11 3 -14 6 -6 3 7 2 16 -1 19 -3 4 -6 -2 -5 -13z"/>
<path d="M376 589 c-17 -14 -26 -29 -24 -43 4 -28 34 -33 43 -7 9 29 49 37 80
17 42 -27 31 -53 -55 -135 -108 -104 -107 -111 20 -111 93 0 100 1 100 20 0
18 -7 20 -71 20 l-71 0 71 68 c64 60 71 71 71 105 0 54 -35 87 -93 87 -30 0
-53 -7 -71 -21z"/>
<path d="M1097 599 c-66 -39 -73 -219 -10 -268 31 -25 89 -28 120 -6 27 19 46
77 38 115 -12 56 -84 87 -136 60 -16 -9 -19 -7 -19 10 0 26 34 60 60 60 11 0
28 -9 37 -20 21 -24 53 -26 53 -5 0 9 -11 27 -25 40 -26 27 -84 34 -118 14z
m84 -139 c14 -8 19 -21 19 -50 0 -40 -18 -60 -54 -60 -22 0 -56 36 -56 60 0
24 34 60 56 60 8 0 24 -5 35 -10z"/>
<path d="M1776 538 c-19 -84 -13 -98 37 -80 18 7 41 12 49 12 43 0 65 -72 32
-104 -21 -22 -60 -20 -84 4 -25 25 -50 26 -50 1 0 -30 47 -61 91 -61 75 0 124
74 95 145 -18 43 -48 59 -98 52 -32 -4 -38 -3 -34 10 3 8 6 23 6 34 0 17 8 19
60 19 53 0 60 2 60 20 0 18 -7 20 -74 20 l-74 0 -16 -72z"/>
<path d="M801 284 c0 -11 3 -14 6 -6 3 7 2 16 -1 19 -3 4 -6 -2 -5 -13z"/>
<path d="M1501 284 c0 -11 3 -14 6 -6 3 7 2 16 -1 19 -3 4 -6 -2 -5 -13z"/>
<path d="M2901 2094 c0 -11 3 -14 6 -6 3 7 2 16 -1 19 -3 4 -6 -2 -5 -13z"/>
<path d="M3601 2094 c0 -11 3 -14 6 -6 3 7 2 16 -1 19 -3 4 -6 -2 -5 -13z"/>
<path d="M3185 1996 c-62 -62 -58 -215 6 -260 29 -20 88 -21 115 -1 51 35 55
127 7 165 -28 22 -73 26 -104 10 -15 -9 -19 -7 -19 7 1 49 64 78 94 44 22 -25
56 -28 56 -6 0 9 -11 27 -25 40 -33 34 -96 35 -130 1z m96 -126 c24 -13 26
-72 3 -94 -27 -28 -62 -19 -83 21 -15 30 -14 40 9 63 22 22 42 25 71 10z"/>
<path d="M2901 1864 c0 -11 3 -14 6 -6 3 7 2 16 -1 19 -3 4 -6 -2 -5 -13z"/>
<path d="M3601 1864 c0 -11 3 -14 6 -6 3 7 2 16 -1 19 -3 4 -6 -2 -5 -13z"/>
<path d="M2901 1634 c0 -11 3 -14 6 -6 3 7 2 16 -1 19 -3 4 -6 -2 -5 -13z"/>
<path d="M3601 1634 c0 -11 3 -14 6 -6 3 7 2 16 -1 19 -3 4 -6 -2 -5 -13z"/>
<path d="M2896 1521 c-4 -5 -2 -12 3 -15 5 -4 12 -2 15 3 4 5 2 12 -3 15 -5 4
-12 2 -15 -3z"/>
<path d="M3596 1521 c-4 -5 -2 -12 3 -15 5 -4 12 -2 15 3 4 5 2 12 -3 15 -5 4
-12 2 -15 -3z"/>
<path d="M2318 1513 c7 -3 16 -2 19 1 4 3 -2 6 -13 5 -11 0 -14 -3 -6 -6z"/>
<path d="M2548 1513 c7 -3 16 -2 19 1 4 3 -2 6 -13 5 -11 0 -14 -3 -6 -6z"/>
<path d="M2778 1513 c7 -3 16 -2 19 1 4 3 -2 6 -13 5 -11 0 -14 -3 -6 -6z"/>
<path d="M3018 1513 c7 -3 16 -2 19 1 4 3 -2 6 -13 5 -11 0 -14 -3 -6 -6z"/>
<path d="M3248 1513 c7 -3 16 -2 19 1 4 3 -2 6 -13 5 -11 0 -14 -3 -6 -6z"/>
<path d="M3478 1513 c7 -3 16 -2 19 1 4 3 -2 6 -13 5 -11 0 -14 -3 -6 -6z"/>
<path d="M2901 1394 c0 -11 3 -14 6 -6 3 7 2 16 -1 19 -3 4 -6 -2 -5 -13z"/>
<path d="M3601 1394 c0 -11 3 -14 6 -6 3 7 2 16 -1 19 -3 4 -6 -2 -5 -13z"/>
<path d="M3885 1298 c-31 -140 -29 -151 30 -129 36 13 74 7 87 -13 16 -23 8
-65 -14 -80 -30 -21 -55 -20 -75 4 -24 27 -63 27 -56 0 16 -61 119 -81 166
-34 73 73 24 184 -74 171 -33 -4 -39 -3 -35 10 3 8 6 23 6 34 0 17 8 19 60 19
53 0 60 2 60 20 0 18 -7 20 -75 20 -69 0 -75 -2 -80 -22z"/>
<path d="M2901 1164 c0 -11 3 -14 6 -6 3 7 2 16 -1 19 -3 4 -6 -2 -5 -13z"/>
<path d="M3601 1164 c0 -11 3 -14 6 -6 3 7 2 16 -1 19 -3 4 -6 -2 -5 -13z"/>
<path d="M2901 934 c0 -11 3 -14 6 -6 3 7 2 16 -1 19 -3 4 -6 -2 -5 -13z"/>
<path d="M3601 934 c0 -11 3 -14 6 -6 3 7 2 16 -1 19 -3 4 -6 -2 -5 -13z"/>
<path d="M2896 821 c-4 -5 -2 -12 3 -15 5 -4 12 -2 15 3 4 5 2 12 -3 15 -5 4
-12 2 -15 -3z"/>
<path d="M3596 821 c-4 -5 -2 -12 3 -15 5 -4 12 -2 15 3 4 5 2 12 -3 15 -5 4
-12 2 -15 -3z"/>
<path d="M2318 813 c7 -3 16 -2 19 1 4 3 -2 6 -13 5 -11 0 -14 -3 -6 -6z"/>
<path d="M2548 813 c7 -3 16 -2 19 1 4 3 -2 6 -13 5 -11 0 -14 -3 -6 -6z"/>
<path d="M2778 813 c7 -3 16 -2 19 1 4 3 -2 6 -13 5 -11 0 -14 -3 -6 -6z"/>
<path d="M3018 813 c7 -3 16 -2 19 1 4 3 -2 6 -13 5 -11 0 -14 -3 -6 -6z"/>
<path d="M3248 813 c7 -3 16 -2 19 1 4 3 -2 6 -13 5 -11 0 -14 -3 -6 -6z"/>
<path d="M3478 813 c7 -3 16 -2 19 1 4 3 -2 6 -13 5 -11 0 -14 -3 -6 -6z"/>
<path d="M2901 634 c0 -11 3 -14 6 -6 3 7 2 16 -1 19 -3 4 -6 -2 -5 -13z"/>
<path d="M3601 634 c0 -11 3 -14 6 -6 3 7 2 16 -1 19 -3 4 -6 -2 -5 -13z"/>
<path d="M3189 597 c-22 -17 -41 -55 -34 -67 10 -16 45 -12 45 5 0 36 71 42
85 7 7 -18 -26 -52 -51 -52 -8 0 -14 -9 -14 -20 0 -15 7 -20 28 -20 36 0 52
-16 52 -52 0 -21 -6 -31 -26 -38 -37 -14 -42 -13 -69 16 -26 28 -55 27 -55 -1
0 -9 11 -27 25 -40 19 -19 35 -25 70 -25 88 0 137 88 81 145 -20 20 -22 26
-10 36 24 20 17 75 -12 98 -30 23 -90 28 -115 8z"/>
<path d="M3902 603 c-24 -9 -43 -60 -32 -87 5 -14 15 -26 21 -26 7 0 4 -10 -8
-22 -30 -33 -36 -62 -19 -101 17 -43 42 -57 95 -57 58 0 96 35 96 89 0 29 -7
47 -22 63 -20 19 -21 23 -6 33 25 18 21 74 -6 97 -22 17 -88 24 -119 11z m79
-43 c44 -24 -1 -72 -47 -51 -28 13 -31 36 -6 50 22 13 29 13 53 1z m7 -116
c31 -21 26 -63 -9 -83 -24 -13 -29 -13 -53 2 -33 22 -34 60 -4 81 28 20 38 20
66 0z"/>
<path d="M2901 284 c0 -11 3 -14 6 -6 3 7 2 16 -1 19 -3 4 -6 -2 -5 -13z"/>
<path d="M3601 284 c0 -11 3 -14 6 -6 3 7 2 16 -1 19 -3 4 -6 -2 -5 -13z"/>
<path d="M5001 2094 c0 -11 3 -14 6 -6 3 7 2 16 -1 19 -3 4 -6 -2 -5 -13z"/>
<path d="M5701 2094 c0 -11 3 -14 6 -6 3 7 2 16 -1 19 -3 4 -6 -2 -5 -13z"/>
<path d="M4586 1999 c-29 -23 -35 -69 -11 -89 13 -11 12 -15 -5 -37 -22 -29
-26 -89 -7 -114 19 -25 52 -39 91 -39 77 0 122 89 74 145 -24 28 -25 28 -6 47
24 24 17 64 -14 91 -28 24 -89 22 -122 -4z m88 -25 c9 -3 16 -17 16 -30 0 -39
-72 -47 -86 -9 -13 32 29 55 70 39z m7 -114 c13 -8 19 -21 19 -46 0 -46 -37
-66 -78 -43 -69 38 -10 126 59 89z"/>
<path d="M5001 1864 c0 -11 3 -14 6 -6 3 7 2 16 -1 19 -3 4 -6 -2 -5 -13z"/>
<path d="M5701 1864 c0 -11 3 -14 6 -6 3 7 2 16 -1 19 -3 4 -6 -2 -5 -13z"/>
<path d="M5001 1634 c0 -11 3 -14 6 -6 3 7 2 16 -1 19 -3 4 -6 -2 -5 -13z"/>
<path d="M5701 1634 c0 -11 3 -14 6 -6 3 7 2 16 -1 19 -3 4 -6 -2 -5 -13z"/>
<path d="M4996 1521 c-4 -5 -2 -12 3 -15 5 -4 12 -2 15 3 4 5 2 12 -3 15 -5 4
-12 2 -15 -3z"/>
<path d="M5696 1521 c-4 -5 -2 -12 3 -15 5 -4 12 -2 15 3 4 5 2 12 -3 15 -5 4
-12 2 -15 -3z"/>
<path d="M4418 1513 c7 -3 16 -2 19 1 4 3 -2 6 -13 5 -11 0 -14 -3 -6 -6z"/>
<path d="M4648 1513 c7 -3 16 -2 19 1 4 3 -2 6 -13 5 -11 0 -14 -3 -6 -6z"/>
<path d="M4878 1513 c7 -3 16 -2 19 1 4 3 -2 6 -13 5 -11 0 -14 -3 -6 -6z"/>
<path d="M5118 1513 c7 -3 16 -2 19 1 4 3 -2 6 -13 5 -11 0 -14 -3 -6 -6z"/>
<path d="M5348 1513 c7 -3 16 -2 19 1 4 3 -2 6 -13 5 -11 0 -14 -3 -6 -6z"/>
<path d="M5578 1513 c7 -3 16 -2 19 1 4 3 -2 6 -13 5 -11 0 -14 -3 -6 -6z"/>
<path d="M5878 1513 c7 -3 16 -2 19 1 4 3 -2 6 -13 5 -11 0 -14 -3 -6 -6z"/>
<path d="M6228 1513 c7 -3 16 -2 19 1 4 3 -2 6 -13 5 -11 0 -14 -3 -6 -6z"/>
<path d="M5001 1394 c0 -11 3 -14 6 -6 3 7 2 16 -1 19 -3 4 -6 -2 -5 -13z"/>
<path d="M5701 1394 c0 -11 3 -14 6 -6 3 7 2 16 -1 19 -3 4 -6 -2 -5 -13z"/>
<path d="M5276 1289 c-30 -35 -32 -47 -11 -55 9 -4 25 4 40 20 27 29 43 32 69
13 27 -20 12 -56 -25 -64 -40 -8 -41 -43 -1 -43 35 0 52 -16 52 -52 0 -51 -66
-65 -98 -21 -20 28 -52 27 -52 -2 0 -32 46 -65 90 -65 52 0 76 13 95 50 21 41
19 67 -8 94 -20 20 -22 26 -10 42 37 51 -6 114 -77 114 -30 0 -44 -6 -64 -31z"/>
<path d="M5001 1164 c0 -11 3 -14 6 -6 3 7 2 16 -1 19 -3 4 -6 -2 -5 -13z"/>
<path d="M5701 1164 c0 -11 3 -14 6 -6 3 7 2 16 -1 19 -3 4 -6 -2 -5 -13z"/>
<path d="M5001 934 c0 -11 3 -14 6 -6 3 7 2 16 -1 19 -3 4 -6 -2 -5 -13z"/>
<path d="M5701 934 c0 -11 3 -14 6 -6 3 7 2 16 -1 19 -3 4 -6 -2 -5 -13z"/>
<path d="M4996 821 c-4 -5 -2 -12 3 -15 5 -4 12 -2 15 3 4 5 2 12 -3 15 -5 4
-12 2 -15 -3z"/>
<path d="M5696 821 c-4 -5 -2 -12 3 -15 5 -4 12 -2 15 3 4 5 2 12 -3 15 -5 4
-12 2 -15 -3z"/>
<path d="M4418 813 c7 -3 16 -2 19 1 4 3 -2 6 -13 5 -11 0 -14 -3 -6 -6z"/>
<path d="M4648 813 c7 -3 16 -2 19 1 4 3 -2 6 -13 5 -11 0 -14 -3 -6 -6z"/>
<path d="M4878 813 c7 -3 16 -2 19 1 4 3 -2 6 -13 5 -11 0 -14 -3 -6 -6z"/>
<path d="M5118 813 c7 -3 16 -2 19 1 4 3 -2 6 -13 5 -11 0 -14 -3 -6 -6z"/>
<path d="M5348 813 c7 -3 16 -2 19 1 4 3 -2 6 -13 5 -11 0 -14 -3 -6 -6z"/>
<path d="M5578 813 c7 -3 16 -2 19 1 4 3 -2 6 -13 5 -11 0 -14 -3 -6 -6z"/>
<path d="M5878 813 c7 -3 16 -2 19 1 4 3 -2 6 -13 5 -11 0 -14 -3 -6 -6z"/>
<path d="M6228 813 c7 -3 16 -2 19 1 4 3 -2 6 -13 5 -11 0 -14 -3 -6 -6z"/>
<path d="M5001 634 c0 -11 3 -14 6 -6 3 7 2 16 -1 19 -3 4 -6 -2 -5 -13z"/>
<path d="M5701 634 c0 -11 3 -14 6 -6 3 7 2 16 -1 19 -3 4 -6 -2 -5 -13z"/>
<path d="M5001 284 c0 -11 3 -14 6 -6 3 7 2 16 -1 19 -3 4 -6 -2 -5 -13z"/>
<path d="M5701 284 c0 -11 3 -14 6 -6 3 7 2 16 -1 19 -3 4 -6 -2 -5 -13z"/>
</g>
</svg>
