<?xml version="1.0" standalone="no"?>
<!DOCTYPE svg PUBLIC "-//W3C//DTD SVG 20010904//EN"
 "http://www.w3.org/TR/2001/REC-SVG-20010904/DTD/svg10.dtd">
<svg version="1.0" xmlns="http://www.w3.org/2000/svg"
 width="650.000000pt" height="650.000000pt" viewBox="0 0 650.000000 650.000000"
 preserveAspectRatio="xMidYMid meet">
<metadata>
Created by potrace 1.14, written by Peter Selinger 2001-2017
</metadata>
<g transform="translate(0.000000,650.000000) scale(0.100000,-0.100000)"
fill="#000000" stroke="none">
<path d="M735 5842 c-3 -3 -5 -1033 -5 -2289 l0 -2283 -259 0 -259 0 -7 -97
c-10 -121 -1 -351 13 -365 17 -17 6029 -15 6045 1 9 9 12 74 12 231 0 120 -3
221 -6 224 -3 3 -141 7 -306 8 -166 2 -304 5 -307 8 -3 3 -6 1031 -8 2285 l-3
2280 -231 3 -231 2 -7 -205 c-4 -112 -6 -361 -5 -553 1 -191 -1 -354 -5 -360
-13 -21 -25 -4 -46 68 -63 211 -313 304 -537 200 -103 -48 -198 -165 -205
-253 l-2 -27 -466 0 -467 0 -12 52 c-40 175 -198 278 -406 265 -127 -7 -234
-63 -297 -154 l-30 -44 -27 43 c-89 141 -257 200 -422 148 -97 -30 -187 -94
-236 -168 l-15 -22 -28 43 c-36 58 -102 112 -159 132 -112 39 -259 28 -361
-26 -98 -53 -141 -106 -160 -196 -12 -57 -46 -101 -63 -84 -21 21 -26 125 -26
622 l-1 507 -62 6 c-70 8 -395 5 -403 -2z m385 -2317 l0 -2256 -152 3 -153 3
-3 2253 -2 2252 155 0 155 0 0 -2255z m4440 1828 c1 -533 1 -3301 0 -3749 l0
-332 -150 0 -150 -1 0 2254 0 2255 150 0 150 0 0 -427z m-3776 -428 c51 -24
105 -81 132 -139 44 -94 28 -231 -36 -308 -101 -122 -333 -125 -448 -7 -45 45
-61 79 -72 145 -16 99 14 199 79 260 80 76 240 99 345 49z m1353 20 c82 -13
171 -94 201 -184 17 -48 15 -165 -3 -207 -26 -63 -76 -115 -135 -143 -45 -21
-69 -26 -135 -26 -130 1 -221 55 -271 160 -27 57 -32 159 -12 227 15 51 77
121 131 147 42 21 139 41 167 35 8 -1 34 -5 57 -9z m1745 -12 c50 -20 122
-101 142 -160 22 -65 21 -177 -4 -231 -31 -69 -69 -110 -125 -137 -148 -73
-315 -22 -384 116 -70 140 -23 319 103 393 78 46 183 53 268 19z m-2412 2 c64
-23 116 -69 147 -133 24 -48 28 -69 28 -137 0 -126 -52 -212 -155 -259 -69
-31 -188 -29 -260 5 -102 48 -158 124 -167 229 -12 134 61 252 184 296 51 18
171 17 223 -1z m-1211 -329 c6 -7 20 -39 31 -71 25 -73 72 -135 133 -175 79
-52 121 -64 237 -64 93 -1 111 2 160 25 73 34 115 71 150 131 22 41 29 47 34
32 11 -36 109 -124 170 -154 34 -16 93 -35 132 -42 136 -23 260 29 355 148
l51 65 20 -40 c65 -132 260 -202 436 -157 64 16 151 65 189 107 31 35 71 119
79 167 l7 42 467 0 468 0 7 -37 c19 -109 96 -205 205 -257 60 -29 73 -31 175
-31 105 0 114 2 177 33 92 45 151 112 178 203 22 74 34 90 47 62 8 -17 11
-570 5 -987 -2 -148 -4 -177 -15 -167 -8 6 -19 30 -26 53 -21 69 -46 111 -94
155 -60 56 -112 80 -196 95 -83 14 -183 1 -256 -33 -53 -25 -134 -95 -154
-133 -18 -33 -26 -33 -40 2 -17 42 -89 108 -141 131 -76 33 -169 45 -251 31
-173 -29 -282 -121 -311 -262 l-12 -58 -470 2 -471 3 -7 48 c-15 105 -72 177
-183 228 -189 88 -426 39 -512 -108 -24 -41 -28 -44 -37 -28 -49 86 -157 154
-276 176 -192 34 -399 -78 -425 -230 -7 -41 -42 -91 -63 -91 -24 0 -37 419
-27 863 7 312 9 337 25 337 10 0 23 -6 29 -14z m526 -979 c59 -30 95 -66 127
-127 31 -60 33 -205 4 -260 -26 -49 -74 -98 -121 -123 -62 -32 -183 -35 -259
-7 -115 44 -179 140 -179 267 0 172 129 289 308 280 50 -3 84 -11 120 -30z
m708 0 c95 -56 141 -141 142 -262 0 -68 -4 -89 -28 -137 -49 -101 -135 -149
-261 -147 -111 1 -196 52 -242 144 -83 171 -4 374 164 422 72 20 171 11 225
-20z m1665 19 c99 -35 157 -98 188 -202 20 -68 15 -131 -17 -204 -95 -220
-467 -191 -545 43 -20 61 -15 166 11 221 58 122 230 189 363 142z m748 -19
c101 -51 154 -144 154 -267 0 -128 -75 -229 -195 -261 -63 -18 -172 -6 -230
24 -108 54 -156 133 -156 253 0 132 62 223 183 266 74 26 175 20 244 -15z
m-3621 -372 c32 -90 50 -119 96 -158 72 -62 142 -89 246 -95 77 -4 104 -1 160
17 84 27 155 78 193 137 l28 45 17 -35 c24 -50 102 -117 161 -139 104 -40 281
-30 377 20 87 44 167 158 167 236 l0 37 474 0 473 0 12 -59 c21 -106 94 -186
215 -235 41 -16 74 -20 166 -21 106 0 120 2 175 28 70 33 107 65 142 125 l26
44 25 -34 c47 -61 118 -124 168 -149 42 -21 63 -24 154 -24 93 0 112 3 162 27
94 44 194 152 225 243 9 27 11 22 19 -50 11 -105 11 -759 0 -900 -7 -97 -10
-107 -22 -90 -8 11 -19 35 -24 55 -15 56 -65 126 -117 164 -156 115 -398 104
-522 -24 -21 -22 -44 -53 -51 -70 -7 -16 -15 -30 -19 -30 -3 0 -26 27 -50 61
-81 111 -175 154 -315 147 -69 -4 -95 -10 -157 -40 -83 -39 -138 -82 -170
-134 l-21 -35 -27 43 c-103 161 -324 212 -514 117 -88 -44 -165 -143 -181
-231 l-7 -38 -467 0 -468 0 -22 69 c-38 118 -131 200 -267 236 -140 36 -284
-2 -380 -100 -43 -45 -56 -69 -75 -143 -8 -30 -19 -46 -36 -54 -13 -6 -26 -9
-29 -6 -10 9 -25 301 -25 479 0 97 3 278 7 403 l6 227 25 -3 c21 -2 29 -14 47
-63z m481 -840 c58 -24 108 -70 140 -127 26 -48 29 -62 29 -143 0 -77 -4 -98
-26 -140 -46 -91 -132 -137 -254 -136 -176 1 -299 118 -298 285 0 144 76 239
220 276 49 12 143 5 189 -15z m1705 -2 c60 -27 104 -66 136 -121 36 -60 45
-189 18 -258 -41 -107 -129 -164 -257 -164 -190 0 -311 112 -311 287 0 57 5
83 27 126 64 131 246 192 387 130z m673 10 c50 -14 71 -27 118 -73 69 -69 94
-137 85 -232 -14 -161 -123 -253 -293 -250 -228 4 -359 218 -257 421 33 66 94
114 174 135 72 19 101 19 173 -1z m751 -18 c102 -50 157 -140 157 -260 0 -124
-53 -210 -160 -257 -63 -28 -197 -23 -265 11 -96 47 -148 124 -155 229 -11
155 59 256 206 298 67 19 152 11 217 -21z m-3641 -310 c9 -9 22 -38 30 -65 8
-26 20 -59 27 -71 21 -41 103 -120 144 -141 228 -117 500 -10 560 219 8 31 21
60 27 65 7 4 218 7 470 7 l456 -1 7 -46 c22 -146 140 -254 309 -283 85 -14
187 0 262 37 51 24 127 93 149 135 11 20 13 19 39 -25 119 -204 542 -200 647
6 l20 39 28 -38 c60 -83 146 -133 264 -153 150 -26 322 39 389 147 12 21 32
67 43 103 27 81 49 88 52 15 0 -27 -1 -213 -4 -412 l-6 -363 -1981 3 -1981 2
-3 409 c-2 321 0 411 10 418 18 11 25 10 42 -7z m4936 -1060 l0 -155 -2950 0
-2950 0 0 155 0 155 2950 0 2950 0 0 -155z"/>
</g>
</svg>
