<?xml version="1.0" standalone="no"?>
<!DOCTYPE svg PUBLIC "-//W3C//DTD SVG 20010904//EN"
 "http://www.w3.org/TR/2001/REC-SVG-20010904/DTD/svg10.dtd">
<svg version="1.0" xmlns="http://www.w3.org/2000/svg"
 width="823.000000pt" height="823.000000pt" viewBox="0 0 823.000000 823.000000"
 preserveAspectRatio="xMidYMid meet">
<metadata>
Created by potrace 1.14, written by Peter Selinger 2001-2017
</metadata>
<g transform="translate(0.000000,823.000000) scale(0.100000,-0.100000)"
fill="#000000" stroke="none">
<path d="M0 4115 l0 -4005 4115 0 4115 0 0 4005 0 4005 -4115 0 -4115 0 0
-4005z m1741 3888 c1 -16 0 -43 -1 -62 -1 -24 2 -32 12 -29 18 6 22 46 8 64
-10 11 -9 14 3 14 9 0 21 -9 27 -21 17 -31 -11 -69 -49 -66 -29 2 -30 3 -33
65 -3 54 -1 62 15 62 12 0 17 -8 18 -27z m1869 -28 c0 -30 0 -58 0 -62 0 -12
-53 -13 -67 -1 -31 25 -3 88 33 74 13 -5 15 -1 12 19 -4 17 -1 25 8 25 10 0
14 -15 14 -55z m1840 40 c0 -18 -16 -20 -23 -2 -3 6 -4 -16 -4 -51 2 -56 0
-62 -18 -62 -18 0 -20 6 -18 50 0 28 7 57 13 65 16 19 50 19 50 0z m1771 -12
c1 -16 0 -43 -1 -60 -1 -20 3 -33 10 -33 8 0 11 14 8 40 -3 32 0 40 12 38 9
-2 17 -19 21 -46 l5 -42 -45 0 -46 0 0 65 c0 55 3 65 18 65 12 0 17 -8 18 -27z
m-6350 -60 c4 -31 2 -43 -7 -43 -18 0 -27 18 -26 51 0 16 -3 29 -8 29 -5 0 -7
-7 -4 -15 4 -9 0 -15 -10 -15 -9 0 -16 4 -16 8 0 16 25 33 45 30 15 -2 21 -13
26 -45z m1824 36 c4 -6 4 -13 0 -17 -4 -4 -10 -1 -12 6 -9 25 -24 11 -21 -20
2 -24 8 -33 20 -32 10 1 15 -2 12 -7 -8 -13 -38 -11 -52 3 -27 27 -7 78 29 78
10 0 21 -5 24 -11z m1825 -8 c14 -28 13 -29 -17 -33 -26 -3 -26 -4 -8 -21 18
-18 18 -19 -6 -15 -18 2 -25 10 -27 31 -6 50 37 77 58 38z m1832 -6 c-3 -18
-14 -28 -36 -34 l-31 -9 33 -1 c59 -2 51 -61 -9 -61 -28 0 -47 14 -31 24 10 6
8 47 -2 64 -12 20 13 42 49 42 29 0 32 -2 27 -25z m-5519 -45 c4 -15 0 -20
-14 -20 -18 0 -26 20 -12 33 11 12 21 8 26 -13z m1037 -419 c42 -32 86 -116
100 -190 15 -83 13 -221 -4 -221 -10 0 -15 27 -18 118 -6 142 -29 213 -87 265
-21 19 -48 38 -60 42 -12 3 -21 11 -21 17 0 17 52 -1 90 -31z m4570 0 c42 -32
86 -116 100 -190 15 -83 13 -221 -4 -221 -10 0 -15 27 -18 118 -6 142 -29 213
-87 265 -21 19 -48 38 -60 42 -12 3 -21 11 -21 17 0 17 52 -1 90 -31z m-5508
-18 c-50 -2 -134 -2 -185 0 -50 1 -9 3 93 3 102 0 143 -2 92 -3z m718 -1 c0
-4 -7 -18 -16 -31 -21 -29 -41 -14 -25 18 11 20 41 30 41 13z m4570 0 c0 -4
-7 -18 -16 -31 -21 -29 -41 -14 -25 18 11 20 41 30 41 13z m1103 1 c-51 -2
-135 -2 -185 0 -51 1 -10 3 92 3 102 0 143 -2 93 -3z m-4653 -33 c0 -13 7 -20
20 -20 11 0 20 -4 20 -10 0 -5 -9 -10 -20 -10 -13 0 -20 -7 -20 -20 0 -11 -4
-20 -10 -20 -5 0 -10 9 -10 20 0 13 -7 20 -20 20 -11 0 -20 5 -20 10 0 6 9 10
20 10 13 0 20 7 20 20 0 11 5 20 10 20 6 0 10 -9 10 -20z m2740 0 c0 -13 7
-20 20 -20 11 0 20 -4 20 -10 0 -5 -9 -10 -20 -10 -13 0 -20 -7 -20 -20 0 -11
-4 -20 -10 -20 -5 0 -10 9 -10 20 0 13 -7 20 -20 20 -11 0 -20 5 -20 10 0 6 9
10 20 10 13 0 20 7 20 20 0 11 5 20 10 20 6 0 10 -9 10 -20z m-4497 -7 c-40
-2 -106 -2 -145 0 -40 1 -8 3 72 3 80 0 112 -2 73 -3z m3496 -13 c22 -11 49
-31 60 -46 l21 -27 21 27 c30 38 91 66 143 66 37 0 48 -5 71 -32 37 -43 28
-80 -32 -139 l-47 -46 -36 15 c-23 10 -65 16 -120 16 -55 0 -97 -6 -120 -16
l-36 -15 -47 46 c-60 59 -69 96 -32 139 23 27 34 32 71 32 25 0 62 -9 83 -20z
m2894 13 c-40 -2 -106 -2 -145 0 -40 1 -8 3 72 3 80 0 112 -2 73 -3z m-7043
-53 c12 -7 12 -13 4 -27 -8 -13 -8 -23 0 -36 15 -24 -3 -51 -38 -55 -30 -4
-45 21 -29 47 7 11 7 21 0 33 -21 33 26 61 63 38z m7610 0 c12 -7 12 -13 4
-27 -8 -13 -8 -23 0 -36 15 -24 -3 -51 -38 -55 -30 -4 -45 21 -29 47 7 11 7
21 0 33 -21 33 26 61 63 38z m-6315 -79 c7 -12 -12 -24 -25 -16 -11 7 -4 25
10 25 5 0 11 -4 15 -9z m4570 0 c7 -12 -12 -24 -25 -16 -11 7 -4 25 10 25 5 0
11 -4 15 -9z m-3417 -18 c-27 -2 -69 -2 -95 0 -27 2 -5 3 47 3 52 0 74 -1 48
-3z m1010 -15 c28 -6 52 -15 52 -21 0 -5 -10 -7 -22 -3 -80 22 -171 29 -240
18 -40 -6 -83 -15 -95 -18 -13 -4 -23 -2 -23 3 0 6 26 15 58 21 31 7 66 14 77
16 28 7 130 -2 193 -16z m1730 15 c-27 -2 -69 -2 -95 0 -27 2 -5 3 47 3 52 0
74 -1 48 -3z m-4535 -50 c-40 -2 -106 -2 -145 0 -40 1 -8 3 72 3 80 0 112 -2
73 -3z m6390 0 c-40 -2 -106 -2 -145 0 -40 1 -8 3 72 3 80 0 112 -2 73 -3z
m-4518 -13 c-4 -6 -57 -10 -125 -10 -68 0 -121 4 -125 10 -4 6 40 10 125 10
85 0 129 -4 125 -10z m2740 0 c-4 -6 -57 -10 -125 -10 -68 0 -121 4 -125 10
-4 6 40 10 125 10 85 0 129 -4 125 -10z m-1785 -10 c0 -6 -60 -10 -160 -10
-100 0 -160 4 -160 10 0 6 60 10 160 10 100 0 160 -4 160 -10z m850 0 c41 -12
67 -27 59 -35 -3 -3 -22 2 -42 10 -22 9 -68 15 -117 15 -49 0 -95 -6 -117 -15
-33 -14 -55 -13 -40 1 29 30 186 44 257 24z m-3672 -7 c-43 -2 -113 -2 -155 0
-43 1 -8 3 77 3 85 0 120 -2 78 -3z m6390 0 c-43 -2 -113 -2 -155 0 -43 1 -8
3 77 3 85 0 120 -2 78 -3z m-3785 -53 c52 -8 119 -3 206 16 51 11 30 -11 -23
-25 -89 -22 -284 -8 -303 22 -4 7 5 8 28 3 19 -4 60 -11 92 -16z m1091 -4 c56
-23 43 -35 -16 -15 -29 10 -78 18 -108 18 -30 0 -79 -8 -107 -18 -52 -17 -72
-12 -34 9 60 32 195 35 265 6z m-3686 -3 c-49 -2 -127 -2 -175 0 -49 1 -9 3
87 3 96 0 136 -2 88 -3z m6390 0 c-49 -2 -127 -2 -175 0 -49 1 -9 3 87 3 96 0
136 -2 88 -3z m-3803 -44 c60 -10 110 -7 197 12 72 16 81 5 13 -16 -78 -23
-211 -23 -287 -1 -66 20 -77 32 -20 22 20 -4 64 -11 97 -17z m-3245 -629 c0
-15 -42 -122 -46 -117 -2 2 3 23 11 47 21 58 19 63 -15 58 -29 -4 -37 1 -23
15 10 11 73 8 73 -3z m7610 0 c0 -15 -42 -122 -46 -117 -2 2 3 23 11 47 21 58
19 63 -15 58 -29 -4 -37 1 -23 15 10 11 73 8 73 -3z m-7636 -932 l-28 -22 25
-6 c18 -5 24 -12 24 -34 0 -62 -67 -59 -73 2 -4 35 33 82 64 82 12 0 9 -6 -12
-22z m7610 0 l-28 -22 25 -6 c18 -5 24 -12 24 -34 0 -62 -67 -59 -73 2 -4 35
33 82 64 82 12 0 9 -6 -12 -22z m-7589 -898 c-3 -5 -18 -10 -33 -11 -16 0 -21
-3 -12 -6 27 -10 50 -36 50 -56 0 -20 0 -20 -23 1 -13 12 -31 22 -40 22 -20 0
-20 2 -5 35 8 18 19 25 40 25 17 0 27 -4 23 -10z m7610 0 c-3 -5 -18 -10 -33
-11 -16 0 -21 -3 -12 -6 27 -10 50 -36 50 -56 0 -20 0 -20 -23 1 -13 12 -31
22 -40 22 -20 0 -20 2 -5 35 8 18 19 25 40 25 17 0 27 -4 23 -10z m-7659 -101
c3 -6 15 -8 27 -5 13 3 17 2 10 -5 -14 -14 -55 -8 -61 9 -5 15 14 16 24 1z
m7610 0 c3 -6 15 -8 27 -5 13 3 17 2 10 -5 -14 -14 -55 -8 -61 9 -5 15 14 16
24 1z m-7564 -846 c2 -27 2 -56 0 -65 -5 -22 -32 -24 -32 -3 0 8 -9 15 -20 15
-11 0 -20 5 -20 11 0 13 52 88 61 89 4 0 9 -21 11 -47z m7610 0 c2 -27 2 -56
0 -65 -5 -22 -32 -24 -32 -3 0 8 -9 15 -20 15 -11 0 -20 5 -20 11 0 13 52 88
61 89 4 0 9 -21 11 -47z m-7617 -890 c0 -12 4 -25 8 -29 13 -13 7 -41 -12 -58
-20 -18 -69 -19 -62 -1 3 11 6 11 33 0 28 -11 36 25 10 46 -18 14 -19 18 -6
23 22 8 6 29 -18 23 -16 -5 -17 -3 -7 9 18 22 54 14 54 -13z m7610 0 c0 -12 4
-25 8 -29 13 -13 7 -41 -12 -58 -20 -18 -69 -19 -62 -1 3 11 6 11 33 0 28 -11
36 25 10 46 -18 14 -19 18 -6 23 22 8 6 29 -18 23 -16 -5 -17 -3 -7 9 18 22
54 14 54 -13z m-6984 -757 c8 -16 8 -30 1 -41 -7 -14 -4 -23 15 -39 33 -29 36
-86 5 -119 l-22 -24 37 -24 c42 -26 83 -97 83 -141 l0 -28 -160 0 -160 0 0 28
c0 44 41 115 83 141 l37 24 -22 24 c-31 33 -28 90 5 119 19 16 22 25 15 39
-17 29 6 65 42 65 22 0 33 -6 41 -24z m910 0 c8 -16 8 -30 1 -41 -7 -14 -4
-23 15 -39 33 -29 36 -86 5 -119 l-22 -24 37 -24 c42 -26 83 -97 83 -141 l0
-28 -160 0 -160 0 0 28 c0 44 41 115 83 141 l37 24 -22 24 c-31 33 -28 90 5
119 19 16 22 25 15 39 -17 29 6 65 42 65 22 0 33 -6 41 -24z m910 0 c8 -16 8
-30 1 -41 -7 -14 -4 -23 15 -39 33 -29 36 -86 5 -119 l-22 -24 37 -24 c42 -26
83 -97 83 -141 l0 -28 -160 0 -160 0 0 28 c0 44 41 115 83 141 l37 24 -22 24
c-31 33 -28 90 5 119 19 16 22 25 15 39 -17 29 6 65 42 65 22 0 33 -6 41 -24z
m920 0 c8 -16 8 -30 1 -41 -7 -14 -4 -23 15 -39 33 -29 36 -86 5 -119 l-22
-24 37 -24 c42 -26 83 -97 83 -141 l0 -28 -160 0 -160 0 0 28 c0 44 41 115 83
141 l37 24 -22 24 c-31 33 -28 90 5 119 19 16 22 25 15 39 -17 29 6 65 42 65
22 0 33 -6 41 -24z m910 0 c8 -16 8 -30 1 -41 -7 -14 -4 -23 15 -39 33 -29 36
-86 5 -119 l-22 -24 37 -24 c42 -26 83 -97 83 -141 l0 -28 -160 0 -160 0 0 28
c0 44 41 115 83 141 l37 24 -22 24 c-31 33 -28 90 5 119 19 16 22 25 15 39
-17 29 6 65 42 65 22 0 33 -6 41 -24z m910 0 c8 -16 8 -30 1 -41 -7 -14 -4
-23 15 -39 33 -29 36 -86 5 -119 l-22 -24 37 -24 c42 -26 83 -97 83 -141 l0
-28 -160 0 -160 0 0 28 c0 44 41 115 83 141 l37 24 -22 24 c-31 33 -28 90 5
119 19 16 22 25 15 39 -17 29 6 65 42 65 22 0 33 -6 41 -24z m920 0 c8 -16 8
-30 1 -41 -7 -14 -4 -23 15 -39 33 -29 36 -86 5 -119 l-22 -24 37 -24 c42 -26
83 -97 83 -141 l0 -28 -160 0 -160 0 0 28 c0 44 41 115 83 141 l37 24 -22 24
c-31 33 -28 90 5 119 19 16 22 25 15 39 -17 29 6 65 42 65 22 0 33 -6 41 -24z
m910 0 c8 -16 8 -30 1 -41 -7 -14 -4 -23 15 -39 33 -29 36 -86 5 -119 l-22
-24 37 -24 c42 -26 83 -97 83 -141 l0 -28 -160 0 -160 0 0 28 c0 44 41 115 83
141 l37 24 -22 24 c-31 33 -28 90 5 119 19 16 22 25 15 39 -17 29 6 65 42 65
22 0 33 -6 41 -24z m-7027 -142 c22 -8 20 -40 -5 -75 l-20 -29 26 0 c15 0 24
-4 20 -10 -3 -5 -22 -10 -41 -10 -33 0 -34 1 -22 21 32 53 36 63 31 76 -3 9
-14 13 -25 10 -16 -5 -17 -3 -7 9 13 16 20 17 43 8z m7610 0 c22 -8 20 -40 -5
-75 l-20 -29 26 0 c15 0 24 -4 20 -10 -3 -5 -22 -10 -41 -10 -33 0 -34 1 -22
21 32 53 36 63 31 76 -3 9 -14 13 -25 10 -16 -5 -17 -3 -7 9 13 16 20 17 43 8z
m-5176 -726 c-2 -13 -10 -23 -18 -23 -8 0 -16 10 -18 23 -3 17 2 22 18 22 16
0 21 -5 18 -22z m917 13 c7 -12 -12 -24 -25 -16 -11 7 -4 25 10 25 5 0 11 -4
15 -9z m1823 -13 c-2 -13 -10 -23 -18 -23 -8 0 -16 10 -18 23 -3 17 2 22 18
22 16 0 21 -5 18 -22z m-1963 -18 c-5 -8 -11 -8 -17 -2 -6 6 -7 16 -3 22 5 8
11 8 17 2 6 -6 7 -16 3 -22z m270 0 c-5 -8 -11 -8 -17 -2 -6 6 -7 16 -3 22 5
8 11 8 17 2 6 -6 7 -16 3 -22z m-1952 -32 c133 -28 183 -112 203 -340 l6 -78
-166 0 c-111 0 -166 4 -166 11 0 19 22 53 66 101 42 48 61 98 67 177 3 46 -16
50 -31 7 -8 -20 -31 -49 -55 -67 -23 -18 -57 -46 -74 -63 -26 -23 -33 -26 -33
-13 0 10 -8 17 -20 17 -12 0 -20 -7 -20 -16 0 -31 -35 -10 -38 23 -3 34 8 59
74 170 24 39 44 79 44 88 0 15 1 15 16 1 22 -23 41 -20 61 11 l17 26 6 -23 c4
-18 15 -26 43 -32z m4570 0 c133 -28 183 -112 203 -340 l6 -78 -166 0 c-111 0
-166 4 -166 11 0 19 22 53 66 101 42 48 61 98 67 177 3 46 -16 50 -31 7 -8
-20 -31 -49 -55 -67 -23 -18 -57 -46 -74 -63 -26 -23 -33 -26 -33 -13 0 10 -8
17 -20 17 -12 0 -20 -7 -20 -16 0 -31 -35 -10 -38 23 -3 34 8 59 74 170 24 39
44 79 44 88 0 15 1 15 16 1 22 -23 41 -20 61 11 l17 26 6 -23 c4 -18 15 -26
43 -32z m-5633 7 c0 -11 12 -15 50 -15 36 0 52 4 56 15 4 8 14 15 24 15 10 0
20 -7 24 -15 4 -11 20 -15 56 -15 38 0 50 4 50 15 0 8 7 15 15 15 9 0 15 -9
15 -25 l0 -25 -160 0 -160 0 0 25 c0 16 6 25 15 25 8 0 15 -7 15 -15z m6390 0
c0 -11 12 -15 50 -15 36 0 52 4 56 15 4 8 14 15 24 15 10 0 20 -7 24 -15 4
-11 20 -15 56 -15 38 0 50 4 50 15 0 8 7 15 15 15 9 0 15 -9 15 -25 l0 -25
-160 0 -160 0 0 25 c0 16 6 25 15 25 8 0 15 -7 15 -15z m-3760 -10 c0 -8 -7
-15 -15 -15 -8 0 -15 7 -15 15 0 8 7 15 15 15 8 0 15 -7 15 -15z m510 0 c0 -8
-7 -15 -15 -15 -8 0 -15 7 -15 15 0 8 7 15 15 15 8 0 15 -7 15 -15z m-1127
-37 c55 -39 75 -120 37 -158 -17 -17 -33 -20 -100 -20 -67 0 -83 3 -100 20
-43 43 -11 134 60 171 37 20 59 18 103 -13z m2740 0 c55 -39 75 -120 37 -158
-17 -17 -33 -20 -100 -20 -67 0 -83 3 -100 20 -43 43 -11 134 60 171 37 20 59
18 103 -13z m-947 -4 c16 -23 16 -28 1 -60 -9 -19 -21 -34 -27 -34 -6 0 -18
15 -27 34 -15 32 -15 37 1 60 9 14 21 26 26 26 5 0 17 -12 26 -26z m-3546 -24
c-8 -5 -67 -10 -130 -10 -63 0 -122 5 -130 10 -10 7 33 10 130 10 97 0 140 -3
130 -10z m6390 0 c-8 -5 -67 -10 -130 -10 -63 0 -122 5 -130 10 -10 7 33 10
130 10 97 0 140 -3 130 -10z m-3765 -46 c3 -26 9 -53 12 -60 4 -10 -4 -14 -27
-14 -23 0 -31 4 -27 14 3 7 9 34 12 60 4 25 11 46 15 46 4 0 11 -21 15 -46z
m802 17 c46 -21 73 -62 73 -109 0 -27 -4 -29 -52 -39 -29 -6 -61 -14 -71 -18
-13 -5 -28 3 -57 33 -56 55 -54 108 5 140 29 16 54 14 102 -7z m292 4 c31 -16
41 -33 41 -72 0 -35 -73 -108 -97 -98 -10 4 -42 12 -70 18 -51 10 -53 11 -53
44 0 46 26 82 75 104 49 23 68 23 104 4z m-3729 -85 l0 -90 -120 0 -120 0 0
90 0 90 120 0 120 0 0 -90z m2543 7 c1 -16 -4 -23 -20 -25 -20 -3 -23 1 -23
30 0 18 3 44 7 58 7 25 7 25 20 -8 7 -18 14 -43 16 -55z m196 12 c1 -33 -1
-36 -24 -31 -14 2 -25 5 -25 6 0 2 7 24 17 51 13 40 18 46 24 30 4 -11 8 -36
8 -56z m3651 -19 l0 -90 -120 0 -120 0 0 90 0 90 120 0 120 0 0 -90z m-3955
29 c21 -33 24 -43 13 -50 -21 -14 -26 -11 -33 24 -4 17 -9 40 -11 50 -8 27 1
20 31 -24z m392 -9 c-10 -52 -13 -55 -35 -41 -11 7 -8 17 13 50 15 22 29 41
30 41 1 0 -2 -22 -8 -50z m-3535 -87 c8 -10 3 -13 -23 -12 -19 0 -28 3 -21 6
7 3 12 23 12 49 0 28 -4 44 -12 44 -7 0 -4 7 7 16 19 14 20 13 23 -38 2 -29 8
-58 14 -65z m7610 0 c8 -10 3 -13 -23 -12 -19 0 -28 3 -21 6 7 3 12 23 12 49
0 28 -4 44 -12 44 -7 0 -4 7 7 16 19 14 20 13 23 -38 2 -29 8 -58 14 -65z
m-4101 11 c6 -4 7 -10 0 -17 -13 -16 -347 -15 -363 1 -14 14 -1 19 57 26 53 6
293 -2 306 -10z m-1011 -29 c11 -13 0 -15 -90 -15 -90 0 -101 2 -90 15 9 11
33 15 90 15 57 0 81 -4 90 -15z m2740 0 c11 -13 0 -15 -90 -15 -90 0 -101 2
-90 15 9 11 33 15 90 15 57 0 81 -4 90 -15z m-897 -16 c20 -5 37 -16 37 -24 0
-12 -5 -12 -27 -3 -16 6 -66 11 -113 11 -47 0 -97 -5 -112 -11 -23 -9 -28 -9
-28 3 0 8 15 19 33 24 44 13 164 13 210 0z m-3628 -19 c4 -6 -40 -10 -125 -10
-85 0 -129 4 -125 10 4 6 57 10 125 10 68 0 121 -4 125 -10z m2749 4 c9 -3 16
-11 16 -18 0 -8 -22 -10 -75 -6 -41 3 -109 3 -150 0 -53 -4 -75 -2 -75 7 0 6
6 14 13 16 18 8 252 8 271 1z m3641 -4 c4 -6 -40 -10 -125 -10 -85 0 -129 4
-125 10 4 6 57 10 125 10 68 0 121 -4 125 -10z m-4595 -19 c0 -13 -38 -21
-100 -21 -62 0 -100 8 -100 21 0 5 45 9 100 9 55 0 100 -4 100 -9z m2740 0 c0
-13 -38 -21 -100 -21 -62 0 -100 8 -100 21 0 5 45 9 100 9 55 0 100 -4 100 -9z
m-921 -14 c25 -7 46 -18 49 -25 3 -10 -3 -11 -25 -5 -15 4 -66 8 -113 8 -47 0
-98 -4 -113 -8 -22 -6 -28 -5 -25 5 6 17 80 36 138 36 25 0 65 -5 89 -11z
m-3589 -22 c0 -13 -23 -15 -150 -15 -127 0 -150 2 -150 15 0 13 23 15 150 15
127 0 150 -2 150 -15z m2748 -13 c25 -32 14 -40 -65 -48 -74 -6 -251 1 -261
11 -3 3 0 16 6 29 9 21 20 26 64 29 102 8 242 -3 256 -21z m3642 13 c0 -13
-23 -15 -150 -15 -127 0 -150 2 -150 15 0 13 23 15 150 15 127 0 150 -2 150
-15z m-4578 -44 c42 -3 80 -10 85 -15 5 -5 0 -6 -12 -2 -25 9 -403 10 -430 1
-16 -6 -17 -5 -5 4 8 6 42 11 75 12 33 1 74 5 90 9 17 5 50 6 75 3 25 -3 80
-8 122 -12z m1792 10 c18 -7 16 -9 -14 -19 -18 -7 -59 -12 -90 -12 -31 0 -72
5 -90 12 -30 10 -32 12 -14 19 10 4 57 8 104 8 47 0 94 -4 104 -8z m948 -10
c42 -3 80 -10 85 -15 5 -5 0 -6 -12 -2 -25 9 -403 10 -430 1 -16 -6 -17 -5 -5
4 8 6 42 11 75 12 33 1 74 5 90 9 17 5 50 6 75 3 25 -3 80 -8 122 -12z m-4512
-11 c0 -6 -70 -10 -190 -10 -120 0 -190 4 -190 10 0 6 70 10 190 10 120 0 190
-4 190 -10z m6390 0 c0 -6 -70 -10 -190 -10 -120 0 -190 4 -190 10 0 6 70 10
190 10 120 0 190 -4 190 -10z m-5679 -337 c1 -16 0 -43 -1 -62 -1 -24 2 -32
12 -29 18 6 22 46 8 64 -10 11 -9 14 3 14 9 0 21 -9 27 -21 17 -31 -11 -69
-49 -66 -29 2 -30 3 -33 65 -3 54 -1 62 15 62 12 0 17 -8 18 -27z m1869 -28
c0 -30 0 -58 0 -62 0 -12 -53 -13 -67 -1 -31 25 -3 88 33 74 13 -5 15 -1 12
19 -4 17 -1 25 8 25 10 0 14 -15 14 -55z m1840 40 c0 -18 -16 -20 -23 -2 -3 6
-4 -16 -4 -51 2 -56 0 -62 -18 -62 -18 0 -20 6 -18 50 0 28 7 57 13 65 16 19
50 19 50 0z m1771 -12 c1 -16 0 -43 -1 -60 -1 -20 3 -33 10 -33 8 0 11 14 8
40 -3 32 0 40 12 38 9 -2 17 -19 21 -46 l5 -42 -45 0 -46 0 0 65 c0 55 3 65
18 65 12 0 17 -8 18 -27z m-6350 -60 c4 -31 2 -43 -7 -43 -18 0 -27 18 -26 51
0 16 -3 29 -8 29 -5 0 -7 -7 -4 -15 4 -9 0 -15 -10 -15 -9 0 -16 4 -16 8 0 16
25 33 45 30 15 -2 21 -13 26 -45z m1824 36 c4 -6 4 -13 0 -17 -4 -4 -10 -1
-12 6 -9 25 -24 11 -21 -20 2 -24 8 -33 20 -32 10 1 15 -2 12 -7 -8 -13 -38
-11 -52 3 -27 27 -7 78 29 78 10 0 21 -5 24 -11z m1825 -8 c14 -28 13 -29 -17
-33 -26 -3 -26 -4 -8 -21 18 -18 18 -19 -6 -15 -18 2 -25 10 -27 31 -6 50 37
77 58 38z m1832 -6 c-3 -18 -14 -28 -36 -34 l-31 -9 33 -1 c59 -2 51 -61 -9
-61 -28 0 -47 14 -31 24 10 6 8 47 -2 64 -12 20 13 42 49 42 29 0 32 -2 27
-25z m-5519 -45 c4 -15 0 -20 -14 -20 -18 0 -26 20 -12 33 11 12 21 8 26 -13z"/>
<path d="M3560 7945 c0 -25 4 -35 13 -32 6 2 12 16 12 32 0 16 -6 30 -12 33
-9 2 -13 -8 -13 -33z"/>
<path d="M4485 7970 c-8 -13 -1 -24 14 -19 6 3 7 10 2 18 -6 10 -10 10 -16 1z"/>
<path d="M6300 7960 c0 -19 11 -26 23 -14 8 8 -3 34 -14 34 -5 0 -9 -9 -9 -20z"/>
<path d="M6290 7880 c0 -5 11 -10 24 -10 14 0 28 5 31 10 4 6 -7 10 -24 10
-17 0 -31 -4 -31 -10z"/>
<path d="M4293 7425 c-60 -25 -50 -101 19 -143 27 -17 40 -19 73 -11 22 5 52
11 68 14 36 7 36 42 1 85 -46 54 -111 77 -161 55z"/>
<path d="M4605 7425 c-49 -17 -105 -76 -105 -110 0 -19 6 -26 28 -30 15 -3 45
-9 67 -14 33 -8 46 -6 73 11 70 43 79 118 17 144 -19 8 -36 14 -37 14 -2 -1
-21 -7 -43 -15z"/>
<path d="M222 7374 c1 -9 9 -19 16 -22 9 -3 13 2 10 14 -1 9 -9 19 -16 22 -9
3 -13 -2 -10 -14z"/>
<path d="M214 7317 c-8 -22 11 -46 26 -31 7 7 5 17 -4 30 -14 18 -15 18 -22 1z"/>
<path d="M7832 7374 c1 -9 9 -19 16 -22 9 -3 13 2 10 14 -1 9 -9 19 -16 22 -9
3 -13 -2 -10 -14z"/>
<path d="M7824 7317 c-8 -22 11 -46 26 -31 7 7 5 17 -4 30 -14 18 -15 18 -22
1z"/>
<path d="M216 5502 c-7 -12 5 -52 15 -52 5 0 9 14 9 30 0 28 -13 40 -24 22z"/>
<path d="M7826 5502 c-7 -12 5 -52 15 -52 5 0 9 14 9 30 0 28 -13 40 -24 22z"/>
<path d="M212 3690 c-10 -17 -10 -20 3 -20 8 0 15 9 15 20 0 11 -1 20 -3 20
-1 0 -8 -9 -15 -20z"/>
<path d="M7822 3690 c-10 -17 -10 -20 3 -20 8 0 15 9 15 20 0 11 -1 20 -3 20
-1 0 -8 -9 -15 -20z"/>
<path d="M1611 1091 c-15 -27 -14 -51 3 -51 19 0 38 26 34 46 -5 25 -25 28
-37 5z"/>
<path d="M1527 934 c-14 -15 -6 -34 14 -34 14 0 19 5 17 17 -3 18 -20 27 -31
17z"/>
<path d="M6181 1091 c-15 -27 -14 -51 3 -51 19 0 38 26 34 46 -5 25 -25 28
-37 5z"/>
<path d="M6097 934 c-14 -15 -6 -34 14 -34 14 0 19 5 17 17 -3 18 -20 27 -31
17z"/>
<path d="M2643 1060 c-3 -11 -12 -20 -19 -20 -8 0 -14 -4 -14 -10 0 -5 6 -10
14 -10 7 0 16 -9 19 -20 3 -11 10 -20 17 -20 7 0 14 9 17 20 3 11 12 20 19 20
8 0 14 5 14 10 0 6 -6 10 -14 10 -7 0 -16 9 -19 20 -3 11 -10 20 -17 20 -7 0
-14 -9 -17 -20z"/>
<path d="M5383 1060 c-3 -11 -12 -20 -19 -20 -8 0 -14 -4 -14 -10 0 -5 6 -10
14 -10 7 0 16 -9 19 -20 3 -11 10 -20 17 -20 7 0 14 9 17 20 3 11 12 20 19 20
8 0 14 5 14 10 0 6 -6 10 -14 10 -7 0 -16 9 -19 20 -3 11 -10 20 -17 20 -7 0
-14 -9 -17 -20z"/>
<path d="M3560 335 c0 -25 4 -35 13 -32 6 2 12 16 12 32 0 16 -6 30 -12 33 -9
2 -13 -8 -13 -33z"/>
<path d="M4485 360 c-8 -13 -1 -24 14 -19 6 3 7 10 2 18 -6 10 -10 10 -16 1z"/>
<path d="M6300 350 c0 -19 11 -26 23 -14 8 8 -3 34 -14 34 -5 0 -9 -9 -9 -20z"/>
<path d="M6290 270 c0 -5 11 -10 24 -10 14 0 28 5 31 10 4 6 -7 10 -24 10 -17
0 -31 -4 -31 -10z"/>
</g>
</svg>
